<?xml version="1.0" encoding="utf-8"?>
<!-- Generator: Adobe Illustrator 27.5.0, SVG Export Plug-In . SVG Version: 6.00 Build 0)  -->
<svg version="1.1" xmlns="http://www.w3.org/2000/svg" xmlns:xlink="http://www.w3.org/1999/xlink" x="0px" y="0px"
	 viewBox="0 0 500 500" style="enable-background:new 0 0 500 500;" xml:space="preserve">
<g id="BACKGROUND">
	<rect style="fill:#FFF9F5;" width="500" height="500"/>
</g>
<g id="OBJECTS">
	<ellipse style="opacity:0.77;fill:#F9EFEA;" cx="250.304" cy="421.606" rx="208" ry="30.511"/>
	<g>
		<g>
			<path style="fill:#C5C7CE;" d="M134.951,57.823c-0.033,0-0.067-0.004-0.101-0.014c-6.372-1.784-7.813-6.826-7.871-7.04
				c-0.054-0.2,0.063-0.405,0.263-0.46c0.199-0.055,0.406,0.063,0.461,0.262c0.013,0.048,1.402,4.851,7.349,6.515
				c0.199,0.056,0.316,0.263,0.26,0.462C135.266,57.715,135.115,57.823,134.951,57.823z"/>
			<path style="fill:#C5C7CE;" d="M166.71,51.841c-0.203,0-0.369-0.161-0.375-0.364c-0.223-7.945,3.533-11.027,3.693-11.154
				c0.161-0.127,0.397-0.102,0.526,0.06c0.129,0.161,0.103,0.397-0.058,0.527c-0.036,0.029-3.623,3.005-3.411,10.546
				c0.006,0.207-0.157,0.38-0.364,0.386C166.717,51.841,166.714,51.841,166.71,51.841z"/>
			<path style="fill:#C5C7CE;" d="M129.283,77.694c-0.048,0-0.097-0.009-0.145-0.029c-4.522-1.886-8.902-5.862-9.086-6.031
				c-0.153-0.14-0.163-0.377-0.024-0.53c0.14-0.153,0.378-0.164,0.53-0.024c0.044,0.04,4.47,4.058,8.869,5.892
				c0.191,0.08,0.281,0.299,0.202,0.491C129.569,77.607,129.429,77.694,129.283,77.694z"/>
			<path style="fill:#C5C7CE;" d="M106.809,81.541c-0.121,0-0.239-0.058-0.312-0.166c-0.025-0.037-2.525-3.715-6.212-5.889
				c-0.178-0.105-0.238-0.335-0.133-0.514c0.105-0.179,0.335-0.239,0.514-0.133c3.838,2.263,6.349,5.961,6.454,6.117
				c0.115,0.172,0.069,0.405-0.103,0.52C106.953,81.521,106.88,81.541,106.809,81.541z"/>
			<path style="fill:#C5C7CE;" d="M90.537,100.479c-0.061,0-0.123-0.015-0.18-0.046c-4.507-2.479-5.596-7.277-5.64-7.48
				c-0.044-0.202,0.084-0.402,0.286-0.446c0.198-0.046,0.402,0.083,0.446,0.286c0.01,0.046,1.067,4.673,5.269,6.983
				c0.182,0.1,0.248,0.328,0.148,0.509C90.798,100.409,90.669,100.479,90.537,100.479z"/>
			<path style="fill:#C5C7CE;" d="M67.342,99.832c-0.183,0-0.344-0.135-0.371-0.321c-0.006-0.04-0.62-4.075-3.516-6.488
				c-0.159-0.133-0.181-0.369-0.048-0.528c0.132-0.159,0.369-0.181,0.528-0.048c3.122,2.602,3.752,6.781,3.778,6.958
				c0.029,0.205-0.113,0.395-0.317,0.424C67.378,99.831,67.36,99.832,67.342,99.832z"/>
			<path style="fill:#C5C7CE;" d="M227.475,66.034c-0.033,0-0.066-0.004-0.1-0.014c-0.2-0.055-0.317-0.261-0.262-0.461
				c1.366-4.963-1.411-12.469-1.439-12.544c-0.073-0.194,0.025-0.41,0.219-0.483c0.194-0.071,0.41,0.026,0.483,0.219
				c0.119,0.316,2.891,7.808,1.459,13.007C227.79,65.925,227.64,66.034,227.475,66.034z"/>
			<path style="fill:#C5C7CE;" d="M252.422,54.384c-0.043,0-0.087-0.008-0.13-0.023c-0.194-0.072-0.293-0.287-0.222-0.481
				c0.016-0.044,1.587-4.432-0.933-8.245c-0.114-0.172-0.067-0.405,0.105-0.52c0.172-0.113,0.406-0.067,0.52,0.106
				c2.734,4.137,1.082,8.725,1.011,8.918C252.718,54.291,252.574,54.384,252.422,54.384z"/>
			<path style="fill:#C5C7CE;" d="M287.212,61.567c-0.18,0-0.339-0.129-0.37-0.313c-0.945-5.574-4.487-8.845-4.523-8.877
				c-0.153-0.139-0.165-0.376-0.025-0.529c0.138-0.154,0.376-0.163,0.529-0.027c0.153,0.139,3.768,3.467,4.76,9.308
				c0.034,0.204-0.104,0.398-0.308,0.432C287.253,61.565,287.232,61.567,287.212,61.567z"/>
			<path style="fill:#C5C7CE;" d="M309.975,47.156c-0.029,0-0.059-0.003-0.088-0.01c-0.201-0.049-0.325-0.251-0.276-0.453
				c1.061-4.39-1.021-7.619-1.966-8.804c-0.004-0.005-0.06-0.078-0.064-0.084c-0.12-0.169-0.08-0.403,0.089-0.523
				c0.166-0.118,0.4-0.081,0.522,0.088c1.054,1.323,3.287,4.788,2.148,9.498C310.298,47.041,310.145,47.156,309.975,47.156z"/>
			<path style="fill:#C5C7CE;" d="M333.174,50.982c-0.109,0-0.219-0.048-0.292-0.14c-2.63-3.275-3.586-9.467-3.626-9.729
				c-0.03-0.205,0.11-0.396,0.315-0.426c0.203-0.035,0.396,0.11,0.427,0.315c0.009,0.062,0.966,6.255,3.468,9.371
				c0.13,0.162,0.104,0.397-0.058,0.527C333.34,50.955,333.257,50.982,333.174,50.982z"/>
			<path style="fill:#C5C7CE;" d="M362.063,46.59c-0.136,0-0.268-0.074-0.334-0.204c-0.094-0.184-0.021-0.41,0.163-0.504
				c0.046-0.024,4.582-2.409,5.735-7.652c0.044-0.202,0.249-0.33,0.446-0.286c0.203,0.044,0.331,0.245,0.286,0.447
				c-1.23,5.598-5.927,8.057-6.126,8.159C362.179,46.577,362.12,46.59,362.063,46.59z"/>
			<path style="fill:#C5C7CE;" d="M375.837,69.143c-0.009,0-0.018-0.001-0.027-0.001c-0.207-0.015-0.362-0.195-0.347-0.401
				c0.43-5.842,4.301-9.517,4.466-9.67c0.15-0.142,0.389-0.133,0.529,0.018c0.142,0.151,0.134,0.388-0.018,0.53
				c-0.038,0.036-3.822,3.638-4.23,9.177C376.196,68.992,376.032,69.143,375.837,69.143z"/>
			<path style="fill:#C5C7CE;" d="M401.578,70.469c-0.09,0-0.18-0.032-0.252-0.097c-0.153-0.139-0.165-0.376-0.025-0.53
				c0.041-0.045,4.139-4.606,4.758-8.642c0.032-0.204,0.224-0.347,0.428-0.313c0.205,0.031,0.346,0.223,0.314,0.428
				c-0.654,4.26-4.77,8.838-4.945,9.031C401.782,70.427,401.68,70.469,401.578,70.469z"/>
			<path style="fill:#C5C7CE;" d="M429.83,88.434c-0.16,0-0.309-0.104-0.358-0.265c-1.627-5.299-0.105-10.02-0.04-10.218
				c0.065-0.197,0.276-0.302,0.474-0.238c0.197,0.065,0.304,0.277,0.239,0.474c-0.016,0.046-1.51,4.7,0.044,9.763
				c0.061,0.198-0.051,0.408-0.248,0.468C429.903,88.429,429.866,88.434,429.83,88.434z"/>
			<path style="fill:#C5C7CE;" d="M271.663,78.109c-0.027,0-0.057-0.003-0.085-0.01c-0.201-0.047-0.327-0.248-0.28-0.45
				c2.824-12.168-1.739-24.126-1.786-24.245c-0.075-0.193,0.021-0.411,0.214-0.486c0.197-0.075,0.41,0.021,0.485,0.213
				c0.047,0.122,4.695,12.288,1.817,24.688C271.988,77.992,271.834,78.109,271.663,78.109z"/>
			<path style="fill:#C5C7CE;" d="M45.921,104.593c-0.257,0-0.475-0.196-0.498-0.457c-0.024-0.275,0.18-0.518,0.455-0.541
				c0.167-0.015,16.932-1.548,38.412-10.92c19.813-8.645,47.808-25.92,68.661-59.127c0.137-0.219,0.421-0.298,0.651-0.179
				c0.222,0.114,22.601,11.446,57.732,17.035c32.412,5.158,82.621,6.339,137.746-17.314c0.205-0.089,0.447-0.028,0.589,0.148
				c0.371,0.467,37.619,46.358,104.208,46.358c0.549,0,1.093-0.003,1.645-0.009c0.275-0.039,0.502,0.218,0.506,0.494
				c0.003,0.276-0.218,0.503-0.494,0.506c-0.554,0.006-1.108,0.009-1.657,0.009c-64.271,0.002-101.405-42.452-104.747-46.44
				c-55.227,23.603-105.509,22.404-137.993,17.229c-32.669-5.203-54.373-15.359-57.58-16.923
				c-20.973,33.187-49.027,50.479-68.904,59.145c-21.624,9.428-38.522,10.969-38.69,10.983
				C45.95,104.593,45.935,104.593,45.921,104.593z"/>
		</g>
		<g>
			<path style="fill:#3EBAB7;" d="M457.518,80.143c-0.027,0.979-0.843,1.75-1.821,1.722c-0.978-0.027-1.749-0.843-1.722-1.821
				c0.027-0.979,0.843-1.75,1.821-1.722C456.773,78.35,457.545,79.165,457.518,80.143z"/>
			<path style="fill:#3EBAB7;" d="M350.797,33.11c-0.027,0.978-0.843,1.749-1.821,1.722c-0.978-0.027-1.749-0.842-1.722-1.821
				c0.027-0.978,0.843-1.749,1.82-1.722C350.053,31.317,350.824,32.132,350.797,33.11z"/>
			<path style="fill:#3EBAB7;" d="M155.189,33.865c-0.027,0.978-0.842,1.749-1.821,1.722c-0.979-0.027-1.749-0.842-1.722-1.821
				c0.027-0.978,0.843-1.749,1.821-1.722C154.445,32.072,155.216,32.887,155.189,33.865z"/>
			<path style="fill:#3EBAB7;" d="M47.068,104.126c-0.027,0.978-0.842,1.749-1.821,1.722c-0.978-0.027-1.749-0.842-1.722-1.821
				c0.027-0.978,0.842-1.749,1.821-1.722C46.324,102.332,47.095,103.147,47.068,104.126z"/>
			<path style="fill:#FFCD6B;" d="M271.864,76.673c-0.977,0.041-4.418-5.203-5.736-5.257c-1.317-0.054-1.938,7.484-2.561,8.247
				c-0.622,0.762-6.525,3.098-6.264,4.476c0.276,1.455,6.395,3.505,6.87,3.639c0.477,0.133,0.294,7.275,2.25,7.663
				c2.268,0.45,5.127-6.06,5.555-6.348c0.428-0.288,7.123,2.232,8.359,0.887c1.237-1.345-3.063-7.147-2.959-7.653
				c0.209-1.014,3.548-5.202,2.487-6.613C279.127,74.73,272.705,76.638,271.864,76.673z"/>
			<path style="opacity:0.34;fill:#FFCD6B;" d="M277.379,82.327c0.209-1.014,3.548-5.202,2.487-6.613
				c-0.739-0.983-7.161,0.924-8.002,0.959c-0.29,0.012-0.801-0.448-1.406-1.094c-0.625,6.616-1.967,13.043-4.99,18.877
				c0.246,0.531,0.554,0.905,0.956,0.985c2.268,0.45,5.127-6.06,5.555-6.348c0.428-0.288,7.123,2.232,8.359,0.887
				C281.575,88.634,277.275,82.832,277.379,82.327z"/>
			<g>
				
					<rect x="180.63" y="44.501" transform="matrix(0.9431 0.3325 -0.3325 0.9431 30.501 -60.8475)" style="fill:#FFBBC0;" width="24.834" height="28.398"/>
				<path style="fill:#FFAFB4;" d="M191.604,43.136l-5.546-1.956l-9.443,26.783l18.091,6.378
					C192.481,64.12,191.509,53.66,191.604,43.136z"/>
			</g>
			<g>
				
					<rect x="391.188" y="65.774" transform="matrix(0.9099 0.4149 -0.4149 0.9099 69.5552 -160.2418)" style="fill:#B1EDF6;" width="24.834" height="28.399"/>
				<path style="fill:#A4EAF5;" d="M409.42,67.02c-5.212,8.444-11.523,15.986-18.664,22.701l18.256,8.324l11.782-25.839
					L409.42,67.02z"/>
			</g>
			
				<rect x="183.56" y="37.644" transform="matrix(0.9557 -0.2944 0.2944 0.9557 -4.8206 56.7089)" style="fill:#495065;" width="4.753" height="13.442"/>
			
				<rect x="412.045" y="63.731" transform="matrix(0.8264 0.5632 -0.5632 0.8264 111.6388 -221.149)" style="fill:#495065;" width="4.753" height="13.442"/>
			<path style="opacity:0.74;fill:#FFEDCB;" d="M261.294,84.39c1.021-0.722,2.108-1.325,3.272-1.782
				c0.711-0.279,0.401-1.44-0.319-1.157c-1.263,0.496-2.45,1.12-3.559,1.903C260.063,83.796,260.661,84.837,261.294,84.39
				L261.294,84.39z"/>
			<path style="opacity:0.74;fill:#FFEDCB;" d="M265.405,75.99c-0.076,1.065-0.152,2.13-0.229,3.194c-0.056,0.771,1.146,0.767,1.2,0
				c0.076-1.064,0.152-2.129,0.228-3.194C266.661,75.22,265.461,75.223,265.405,75.99L265.405,75.99z"/>
			<g>
				<path style="fill:#FFCD6B;" d="M287.337,59.755c-2.143-0.286-4.223,5-0.456,5.239C290.646,65.232,288.98,59.975,287.337,59.755z
					"/>
				<path style="opacity:0.74;fill:#FFEDCB;" d="M286.05,61.496c-0.319,0.69-0.396,1.391-0.198,2.129
					c0.149,0.559,1.018,0.322,0.868-0.239c-0.132-0.49-0.107-0.972,0.107-1.436C287.068,61.428,286.292,60.97,286.05,61.496
					L286.05,61.496z"/>
			</g>
			<g>
				<path style="fill:#FFCD6B;" d="M308.76,39.071c1.93-0.976,0.653-6.512-2.587-4.578C302.933,36.427,307.28,39.82,308.76,39.071z"
					/>
				<path style="opacity:0.74;fill:#FFEDCB;" d="M307.211,35.75c0.33,0.42,0.539,0.897,0.661,1.415
					c0.134,0.563,1.002,0.325,0.868-0.239c-0.161-0.678-0.465-1.266-0.892-1.812C307.491,34.658,306.857,35.299,307.211,35.75
					L307.211,35.75z"/>
			</g>
			<g>
				<path style="fill:#FFCD6B;" d="M331.543,48.041c-2.041,0.714-1.504,6.369,1.962,4.878
					C336.972,51.428,333.108,47.492,331.543,48.041z"/>
				<path style="opacity:0.74;fill:#FFEDCB;" d="M331.27,50.404c0.129,0.582,0.409,1.085,0.824,1.513
					c0.404,0.417,1.04-0.221,0.637-0.637c-0.313-0.322-0.496-0.678-0.593-1.116C332.014,49.599,331.145,49.838,331.27,50.404
					L331.27,50.404z"/>
			</g>
			<g>
				<path style="fill:#FFCD6B;" d="M367.733,39.36c2.038,0.721,5.161-4.024,1.525-5.032C365.622,33.319,366.17,38.807,367.733,39.36
					z"/>
				<path style="opacity:0.74;fill:#FFEDCB;" d="M367.723,35.307c-0.337,0.478-0.495,1.017-0.488,1.601
					c0.006,0.579,0.906,0.58,0.899,0c-0.005-0.442,0.112-0.787,0.366-1.146C368.834,35.287,368.055,34.837,367.723,35.307
					L367.723,35.307z"/>
			</g>
			<g>
				<path style="fill:#FFCD6B;" d="M376.223,66.766c-2.137-0.328-4.318,4.918-0.558,5.229
					C379.425,72.306,377.862,67.018,376.223,66.766z"/>
				<path style="opacity:0.74;fill:#FFEDCB;" d="M374.985,68.495c-0.421,0.582-0.438,1.276-0.146,1.915
					c0.24,0.526,1.017,0.069,0.777-0.454c-0.163-0.357-0.075-0.702,0.146-1.007C376.103,68.479,375.322,68.03,374.985,68.495
					L374.985,68.495z"/>
			</g>
			<g>
				<path style="fill:#FFCD6B;" d="M405.932,62.137c2.038,0.721,5.161-4.024,1.525-5.033
					C403.82,56.096,404.368,61.583,405.932,62.137z"/>
				<path style="opacity:0.74;fill:#FFEDCB;" d="M406.873,58.981c0.045,0.41,0,0.769-0.19,1.14c-0.265,0.514,0.512,0.97,0.777,0.455
					c0.259-0.503,0.376-1.029,0.313-1.594C407.709,58.412,406.809,58.405,406.873,58.981L406.873,58.981z"/>
			</g>
			<g>
				<path style="fill:#FFCD6B;" d="M429.338,85.59c-2.064,0.646-1.713,6.317,1.801,4.941
					C434.652,89.155,430.921,85.094,429.338,85.59z"/>
				<path style="opacity:0.74;fill:#FFEDCB;" d="M428.963,87.733c0.002,0.742,0.11,1.417,0.756,1.864
					c0.477,0.331,0.927-0.449,0.454-0.777c-0.339-0.235-0.309-0.725-0.31-1.087C429.861,87.154,428.961,87.153,428.963,87.733
					L428.963,87.733z"/>
			</g>
			<g>
				<path style="fill:#FFCD6B;" d="M227.736,63.456c-2.021-0.77-5.256,3.899-1.646,4.995
					C229.701,69.546,229.286,64.046,227.736,63.456z"/>
				<path style="opacity:0.74;fill:#FFEDCB;" d="M227.231,65.59c0.075,0.458-0.049,0.917-0.343,1.276
					c-0.363,0.445,0.271,1.086,0.637,0.637c0.515-0.632,0.705-1.347,0.574-2.152C228.006,64.781,227.139,65.023,227.231,65.59
					L227.231,65.59z"/>
			</g>
			<g>
				<path style="fill:#FFCD6B;" d="M166.72,49.163c-2.114-0.456-4.607,4.648-0.872,5.186
					C169.582,54.887,168.341,49.513,166.72,49.163z"/>
				<path style="opacity:0.74;fill:#FFEDCB;" d="M165.201,50.827c-0.246,0.497-0.384,0.996-0.435,1.547
					c-0.054,0.577,0.847,0.573,0.9,0c0.036-0.386,0.14-0.745,0.312-1.093C166.234,50.764,165.458,50.308,165.201,50.827
					L165.201,50.827z"/>
			</g>
			<g>
				<path style="fill:#FFCD6B;" d="M128.044,52.298c2.064-0.643,1.724-6.313-1.792-4.943
					C122.736,48.724,126.461,52.792,128.044,52.298z"/>
				<path style="opacity:0.74;fill:#FFEDCB;" d="M125.971,48.915c-0.03,0.367,0.002,0.714,0.082,1.072
					c0.127,0.565,0.995,0.326,0.868-0.239c-0.063-0.281-0.074-0.547-0.05-0.833C126.918,48.337,126.018,48.34,125.971,48.915
					L125.971,48.915z"/>
			</g>
			<g>
				<path style="fill:#FFCD6B;" d="M128.044,76.43c-0.68,2.053,4.128,5.079,5.063,1.423
					C134.041,74.197,128.565,74.856,128.044,76.43z"/>
				<path style="opacity:0.74;fill:#FFEDCB;" d="M129.547,77.569c0.47,0.547,1.145,0.831,1.863,0.794c0.577-0.03,0.58-0.93,0-0.9
					c-0.5,0.026-0.902-0.151-1.227-0.529C129.805,76.493,129.171,77.132,129.547,77.569L129.547,77.569z"/>
			</g>
			<g>
				<path style="fill:#FFCD6B;" d="M101.371,75.869c1.402-1.646-1.915-6.258-4.156-3.223
					C94.975,75.683,100.296,77.132,101.371,75.869z"/>
				<path style="opacity:0.74;fill:#FFEDCB;" d="M97.794,74.551c0.338,0.585,0.864,0.985,1.523,1.142
					c0.563,0.134,0.803-0.734,0.239-0.868c-0.44-0.104-0.759-0.335-0.985-0.729C98.282,73.595,97.504,74.048,97.794,74.551
					L97.794,74.551z"/>
			</g>
			<g>
				<path style="fill:#FFCD6B;" d="M89.564,99.133c-1.559,1.498,1.28,6.419,3.813,3.622C95.91,99.957,90.761,97.984,89.564,99.133z"
					/>
				<path style="opacity:0.74;fill:#FFEDCB;" d="M90.253,101.254c0.149,0.585,0.482,1.032,0.979,1.37
					c0.48,0.327,0.931-0.453,0.454-0.777c-0.303-0.207-0.475-0.479-0.565-0.832C90.978,100.455,90.109,100.692,90.253,101.254
					L90.253,101.254z"/>
			</g>
			<g>
				<path style="fill:#FFCD6B;" d="M64.277,93.267c1.686-1.354-0.707-6.506-3.478-3.944C58.029,91.884,62.984,94.306,64.277,93.267z
					"/>
				<path style="opacity:0.74;fill:#FFEDCB;" d="M60.853,91.211c0.217,0.454,0.535,0.798,0.946,1.083
					c0.477,0.331,0.928-0.449,0.455-0.777c-0.286-0.198-0.475-0.448-0.624-0.76C61.38,90.235,60.603,90.691,60.853,91.211
					L60.853,91.211z"/>
			</g>
			<g>
				<path style="fill:#FFCD6B;" d="M251.837,45.804c1.929-0.977,0.653-6.512-2.587-4.579
					C246.01,43.159,250.357,46.552,251.837,45.804z"/>
				<path style="opacity:0.74;fill:#FFEDCB;" d="M249.257,42.481c-0.294,0.842,0.198,1.723,1.02,2.004
					c0.549,0.188,0.785-0.681,0.239-0.868c-0.383-0.131-0.517-0.539-0.391-0.897C250.317,42.172,249.447,41.937,249.257,42.481
					L249.257,42.481z"/>
			</g>
		</g>
	</g>
	<g>
		<path style="fill:#FFBBC0;" d="M128.103,250.563c-0.798-2.29-2.086-3.687-3.829-4.15c-1.04-0.278-2.106-0.169-3.086,0.115
			c0.173-4.109,0.229-7.184,0.119-7.658c-0.368-1.569-30.507-1.584-31.234,1.353c-0.371,1.499,0,22.456,5.706,32.58
			c0.621,1.103,18.252,2.044,21.959,0.048c0.879-0.474,2.135-6.048,2.593-11.912c0.244,0.021,0.488,0.039,0.731,0.039
			c2.002,0,3.944-0.687,5.384-2C128.659,256.959,129.262,253.892,128.103,250.563z M125.056,257.452
			c-1.195,1.09-2.872,1.573-4.57,1.424c0.244-3.394,0.451-6.953,0.602-10.123c0.874-0.356,1.82-0.567,2.656-0.346
			c1.04,0.276,1.851,1.23,2.41,2.835C127.041,253.791,126.651,255.996,125.056,257.452z"/>
		<path style="fill:#FF727C;" d="M104.98,263.373c2.407,0.269,8.024-9.181,5.629-10.405c-2.395-1.225-5.351,5.022-5.351,5.022
			s-2.804-6.642-5.777-5.181C96.508,254.271,103.098,263.162,104.98,263.373z"/>
		<path style="opacity:0.24;fill:#FFBBC0;" d="M128.103,250.563c-0.798-2.29-2.086-3.687-3.829-4.15
			c-1.04-0.278-2.106-0.169-3.086,0.115c0.173-4.109,0.229-7.184,0.119-7.658c-0.088-0.374-1.878-0.659-4.548-0.837
			c-3.215,12.623-11.677,23.964-22.586,31.298c0.482,1.249,1.014,2.421,1.606,3.471c0.621,1.103,18.252,2.044,21.959,0.048
			c0.879-0.474,2.135-6.048,2.593-11.912c0.244,0.021,0.488,0.039,0.731,0.039c2.002,0,3.944-0.687,5.384-2
			C128.659,256.959,129.262,253.892,128.103,250.563z M125.056,257.452c-1.195,1.09-2.872,1.573-4.57,1.424
			c0.244-3.394,0.451-6.953,0.602-10.123c0.874-0.356,1.82-0.567,2.656-0.346c1.04,0.276,1.851,1.23,2.41,2.835
			C127.041,253.791,126.651,255.996,125.056,257.452z"/>
		<path style="fill:#FF727C;" d="M90.073,240.222c0.088,4.423,31.398,3.804,31.234-1.353
			C121.142,233.713,89.956,234.362,90.073,240.222z"/>
		<path style="opacity:0.27;fill:#FF727C;" d="M108.358,239.139c-5.313,0.115-10.439,1.381-15.457,3.012
			c6.69,1.833,23.237,1.181,27.418-1.773C116.405,239.536,112.425,239.051,108.358,239.139z"/>
		<path style="fill:#FFCED1;" d="M91.777,246.838c0.034,0.577,0.068,1.154,0.102,1.731c0.057,0.96,1.557,0.966,1.5,0
			c-0.034-0.577-0.068-1.154-0.102-1.731C93.22,245.879,91.72,245.873,91.777,246.838L91.777,246.838z"/>
		<path style="fill:#FFCED1;" d="M91.908,251.429c0.199,1.939,0.47,3.869,0.816,5.788c0.171,0.948,1.617,0.547,1.446-0.398
			c-0.322-1.788-0.577-3.583-0.762-5.39C93.311,250.477,91.81,250.467,91.908,251.429L91.908,251.429z"/>
	</g>
	
		<rect x="53.333" y="136.054" transform="matrix(0.9825 -0.1863 0.1863 0.9825 -26.9973 15.4358)" style="fill:#FFBBC0;" width="30.565" height="30.565"/>
	
		<rect x="84.566" y="176.802" transform="matrix(0.9924 0.1234 -0.1234 0.9924 24.4675 -10.8536)" style="fill:#B1EDF6;" width="30.565" height="30.565"/>
	<g>
		<g>
			<polygon style="fill:#303850;" points="245.101,263.747 198.284,263.747 207.284,246.153 236.101,246.153 			"/>
			<path style="opacity:0.29;fill:#303850;" d="M240.294,254.35l-4.193-8.196h-28.817l-5.167,10.1
				C214.843,255.622,227.571,255.041,240.294,254.35z"/>
			<path style="fill:#0F061E;" d="M297.635,129.366H145.75c-2.632,0-4.767,2.134-4.767,4.767v93.001h161.418v-93.001
				C302.401,131.501,300.267,129.366,297.635,129.366z"/>
			<path style="fill:#303850;" d="M140.984,227.133v17.072c0,2.632,2.134,4.767,4.767,4.767h151.884
				c2.632,0,4.767-2.134,4.767-4.767v-17.072H140.984z"/>
			<rect x="146.992" y="135.091" style="fill:#7B7F8F;" width="149.4" height="86.067"/>
			<rect x="146.992" y="135.091" style="opacity:0.54;fill:#0F061E;" width="149.4" height="2.596"/>
			<path style="opacity:0.36;fill:#303850;" d="M224.824,238.053c0,1.729-1.402,3.131-3.132,3.131c-1.73,0-3.132-1.402-3.132-3.131
				c0-1.73,1.402-3.132,3.132-3.132C223.422,234.92,224.824,236.323,224.824,238.053z"/>
			<rect x="196.056" y="145.344" style="fill:#F7F7F8;" width="77.572" height="67.771"/>
			<rect x="167.277" y="160.509" style="fill:#303850;" width="20.664" height="34.131"/>
			<rect x="226.083" y="172.6" style="fill:#3EBAB7;" width="20.365" height="10.308"/>
			<rect x="236.867" y="158.243" style="fill:#FF727C;" width="18.438" height="8.704"/>
			<rect x="234.204" y="188.27" style="fill:#FFCD6B;" width="19.98" height="10.962"/>
			<rect x="173.299" y="197.224" style="fill:#303850;" width="14.643" height="2.994"/>
			<rect x="172.151" y="166.177" style="fill:#575E71;" width="2.295" height="23.409"/>
			<g>
				<path style="fill:#303850;" d="M223.946,165.121c-0.184,0-0.339-0.144-0.349-0.331c-0.011-0.193,0.137-0.358,0.33-0.369
					c0.881-0.049,1.408-0.031,1.43-0.03c0.193,0.007,0.344,0.17,0.337,0.363c-0.007,0.193-0.169,0.344-0.363,0.337
					c-0.005,0.001-0.517-0.019-1.364,0.029C223.959,165.121,223.953,165.121,223.946,165.121z"/>
				<path style="fill:#303850;" d="M219.694,206.955c-0.038,0-0.076-0.006-0.113-0.019c-0.871-0.297-1.723-0.64-2.532-1.021
					c-0.175-0.082-0.251-0.291-0.168-0.466c0.082-0.176,0.292-0.252,0.466-0.168c0.786,0.369,1.613,0.703,2.459,0.991
					c0.183,0.063,0.281,0.261,0.219,0.444C219.976,206.863,219.84,206.955,219.694,206.955z M214.835,204.662
					c-0.063,0-0.127-0.018-0.186-0.054c-0.779-0.488-1.527-1.025-2.222-1.597c-0.149-0.122-0.171-0.343-0.048-0.493
					c0.123-0.149,0.343-0.171,0.493-0.048c0.672,0.552,1.395,1.072,2.149,1.544c0.164,0.103,0.213,0.319,0.111,0.483
					C215.066,204.604,214.952,204.662,214.835,204.662z M210.69,201.247c-0.094,0-0.188-0.038-0.257-0.112
					c-0.619-0.667-1.198-1.384-1.721-2.13c-0.111-0.158-0.072-0.376,0.086-0.488c0.159-0.11,0.377-0.072,0.488,0.086
					c0.504,0.72,1.063,1.411,1.66,2.055c0.131,0.142,0.123,0.363-0.019,0.495C210.861,201.216,210.776,201.247,210.69,201.247z
					 M207.61,196.852c-0.127,0-0.25-0.069-0.312-0.19c-0.412-0.8-0.78-1.644-1.093-2.507c-0.066-0.182,0.028-0.383,0.21-0.449
					c0.182-0.068,0.383,0.028,0.449,0.209c0.304,0.837,0.66,1.652,1.058,2.425c0.088,0.172,0.021,0.383-0.151,0.472
					C207.719,196.839,207.664,196.852,207.61,196.852z M205.767,191.805c-0.159,0-0.302-0.109-0.34-0.27
					c-0.204-0.863-0.366-1.767-0.482-2.686c-0.024-0.192,0.112-0.367,0.304-0.392c0.192-0.024,0.367,0.112,0.392,0.304
					c0.113,0.895,0.271,1.773,0.469,2.612c0.044,0.189-0.072,0.377-0.26,0.421C205.821,191.802,205.794,191.805,205.767,191.805z
					 M205.081,186.473c-0.188,0-0.344-0.149-0.35-0.338c-0.012-0.352-0.018-0.708-0.018-1.068c0-0.54,0.013-1.092,0.04-1.653
					c0.009-0.193,0.182-0.331,0.367-0.333c0.193,0.01,0.342,0.174,0.333,0.367c-0.027,0.549-0.04,1.089-0.04,1.619
					c0,0.353,0.006,0.701,0.018,1.045c0.006,0.193-0.145,0.355-0.338,0.362C205.088,186.473,205.084,186.473,205.081,186.473z
					 M205.331,181.096c-0.014,0-0.027-0.001-0.041-0.002c-0.192-0.022-0.33-0.197-0.308-0.389l0.022-0.179
					c0.107-0.863,0.262-1.708,0.46-2.513c0.047-0.188,0.237-0.302,0.424-0.256c0.188,0.046,0.302,0.236,0.256,0.424
					c-0.192,0.777-0.342,1.596-0.445,2.432l-0.021,0.173C205.658,180.965,205.506,181.096,205.331,181.096z M206.635,175.891
					c-0.045,0-0.089-0.009-0.133-0.026c-0.179-0.074-0.264-0.278-0.191-0.458c0.353-0.858,0.773-1.681,1.247-2.447
					c0.103-0.164,0.318-0.215,0.482-0.113c0.165,0.102,0.215,0.318,0.113,0.482c-0.455,0.733-0.856,1.521-1.194,2.344
					C206.903,175.809,206.772,175.891,206.635,175.891z M209.466,171.343c-0.083,0-0.167-0.029-0.233-0.089
					c-0.144-0.129-0.157-0.351-0.028-0.495c0.603-0.675,1.276-1.309,2.001-1.885c0.151-0.119,0.371-0.096,0.492,0.057
					c0.12,0.151,0.095,0.372-0.057,0.492c-0.693,0.551-1.337,1.158-1.914,1.803C209.658,171.304,209.562,171.343,209.466,171.343z
					 M213.655,167.996c-0.122,0-0.24-0.064-0.305-0.177c-0.095-0.169-0.037-0.382,0.131-0.478c0.773-0.439,1.604-0.839,2.47-1.187
					c0.179-0.07,0.383,0.016,0.456,0.195c0.072,0.179-0.015,0.383-0.195,0.456c-0.837,0.336-1.639,0.721-2.384,1.146
					C213.773,167.98,213.713,167.996,213.655,167.996z M218.638,165.979c-0.154,0-0.296-0.103-0.338-0.259
					c-0.051-0.187,0.06-0.379,0.246-0.43c0.862-0.234,1.761-0.427,2.671-0.573c0.19-0.038,0.371,0.099,0.401,0.29
					c0.031,0.191-0.099,0.371-0.29,0.401c-0.887,0.143-1.761,0.331-2.599,0.558C218.699,165.974,218.668,165.979,218.638,165.979z"
					/>
				<path style="fill:#303850;" d="M223.713,207.98c-0.02,0-0.04-0.002-0.061-0.005c-0.467-0.082-0.931-0.176-1.39-0.281
					c-0.189-0.043-0.307-0.23-0.264-0.419c0.043-0.189,0.234-0.31,0.419-0.264c0.449,0.102,0.901,0.193,1.356,0.273
					c0.191,0.034,0.318,0.215,0.285,0.406C224.028,207.86,223.88,207.98,223.713,207.98z"/>
			</g>
			<path style="fill:#0F061E;" d="M207.754,181.113c0,1.327-1.076,2.402-2.402,2.402c-1.327,0-2.402-1.076-2.402-2.402
				c0-1.327,1.075-2.402,2.402-2.402C206.679,178.711,207.754,179.787,207.754,181.113z"/>
		</g>
		<path style="fill:#FFD583;" d="M274.238,272.802H167.466v-5.422c0-2.007,1.626-3.633,3.633-3.633h99.506
			c2.006,0,3.633,1.626,3.633,3.633V272.802z"/>
	</g>
	<g>
		<g>
			<path style="fill:#FFCD6B;" d="M399.307,277.585c-1.366-1.284-12.444-2.562-12.712,0.189
				c-0.159,1.644-12.922,142.332-13.041,143.633c-0.12,1.301,5.681,2.228,6.126,0.153c0.129-0.604,1.301-12.643,2.873-29.457
				l27.465,0.684c2.627,16.085,4.483,27.42,4.563,27.838c0.276,1.453,4.593,1.112,5.136,0.128
				C420.258,419.769,400.672,278.87,399.307,277.585z M383.314,383.931c3.512-37.884,8.341-92.092,8.675-102.224
				c2.046,12.964,10.702,66.178,16.686,102.855L383.314,383.931z"/>
			<path style="opacity:0.4;fill:#FFCD6B;" d="M390.705,300.188c0.712-8.886,1.188-15.54,1.284-18.48
				c0.604,3.829,1.785,11.17,3.304,20.558c2.91,1.318,5.822,2.633,8.73,3.955c-2.459-16.564-4.328-28.268-4.717-28.635
				c-1.366-1.284-12.444-2.562-12.712,0.189c-0.037,0.378-0.738,8.097-1.799,19.765C386.766,298.422,388.737,299.3,390.705,300.188z
				"/>
			<path style="opacity:0.93;fill:#FFEDCB;" d="M406.541,350.872c0.171,3.462,0.638,6.87,1.403,10.251
				c0.214,0.942,1.66,0.543,1.446-0.398c-0.736-3.25-1.186-6.524-1.35-9.853C407.994,349.911,406.493,349.905,406.541,350.872
				L406.541,350.872z"/>
			<path style="opacity:0.93;fill:#FFEDCB;" d="M408.357,363.666c0.061,0.851,0.22,1.678,0.505,2.482
				c0.32,0.903,1.771,0.514,1.446-0.398c-0.24-0.677-0.399-1.366-0.451-2.083C409.788,362.709,408.287,362.702,408.357,363.666
				L408.357,363.666z"/>
			<path style="opacity:0.93;fill:#FFEDCB;" d="M377.44,402.352c-0.187,2.793-0.373,5.587-0.56,8.38c-0.065,0.964,1.436,0.96,1.5,0
				c0.186-2.793,0.373-5.587,0.56-8.38C379.005,401.388,377.504,401.392,377.44,402.352L377.44,402.352z"/>
			<path style="opacity:0.93;fill:#FFEDCB;" d="M376.346,413.998c0,0.524,0,1.048,0,1.571c0,0.966,1.5,0.967,1.5,0
				c0-0.523,0-1.048,0-1.571C377.846,413.032,376.346,413.031,376.346,413.998L376.346,413.998z"/>
		</g>
		<g>
			<rect x="68.717" y="278.979" style="fill:#FFCD6B;" width="70.479" height="145.488"/>
			<path style="opacity:0.21;fill:#FFCD6B;" d="M110.404,374.059c7.284,16.531,13.618,33.434,19.765,50.409h9.027V278.979H68.717
				v22.458C84.102,324.807,99.018,348.22,110.404,374.059z"/>
			<rect x="68.717" y="329.623" style="opacity:0.67;fill:#FFCD6B;" width="70.479" height="1.629"/>
			<rect x="68.717" y="376.891" style="opacity:0.67;fill:#FFCD6B;" width="70.479" height="1.63"/>
			<path style="opacity:0.67;fill:#FFCD6B;" d="M112.073,296.885H95.841c-1.36,0-2.462-1.103-2.462-2.462l0,0
				c0-1.359,1.103-2.462,2.462-2.462h16.232c1.36,0,2.462,1.103,2.462,2.462l0,0C114.535,295.782,113.433,296.885,112.073,296.885z"
				/>
			<path style="opacity:0.67;fill:#FFCD6B;" d="M112.073,343.552H95.841c-1.36,0-2.462-1.103-2.462-2.462l0,0
				c0-1.36,1.103-2.463,2.462-2.463h16.232c1.36,0,2.462,1.102,2.462,2.463l0,0C114.535,342.449,113.433,343.552,112.073,343.552z"
				/>
			<path style="opacity:0.67;fill:#FFCD6B;" d="M112.073,390.219H95.841c-1.36,0-2.462-1.103-2.462-2.463l0,0
				c0-1.359,1.103-2.462,2.462-2.462h16.232c1.36,0,2.462,1.103,2.462,2.462l0,0C114.535,389.116,113.433,390.219,112.073,390.219z"
				/>
			<path style="opacity:0.74;fill:#FFEDCB;" d="M72.813,390.219c-0.191,4.875-0.186,9.745,0.016,14.619
				c0.06,1.443,2.31,1.451,2.25,0c-0.201-4.874-0.207-9.745-0.016-14.619C75.12,388.771,72.87,388.772,72.813,390.219
				L72.813,390.219z"/>
			<path style="opacity:0.74;fill:#FFEDCB;" d="M72.662,409.455c0,0.924,0,1.848,0,2.77c0,1.448,2.25,1.45,2.25,0
				c0-0.923,0-1.847,0-2.77C74.912,408.008,72.662,408.006,72.662,409.455L72.662,409.455z"/>
		</g>
		<rect x="59.929" y="272.802" style="fill:#303850;" width="369.403" height="11.183"/>
		<rect x="59.929" y="278.394" style="opacity:0.25;fill:#303850;" width="369.403" height="5.591"/>
	</g>
	<g>
		<path style="fill:#7ED1CF;" d="M148.343,377.925c-0.41,2.31,4.165,44.382,4.865,45.36c0.7,0.979,27.44,1.437,28.461,0
			c1.021-1.437,3.448-44.108,3.448-45.36C185.117,376.673,148.641,376.245,148.343,377.925z"/>
		<path style="fill:#97DAD8;" d="M155.325,376.99c-4.06,0.169-6.9,0.472-6.982,0.935c-0.41,2.31,4.165,44.382,4.865,45.36
			c0.181,0.254,2.12,0.472,4.9,0.631C156.497,408.316,155.557,392.669,155.325,376.99z"/>
		<path style="fill:#97DAD8;" d="M170.76,376.872c-2.778-0.048-5.683-0.064-8.449-0.041c0.215,15.813,1.161,31.601,2.809,47.33
			c1.19,0.021,2.401,0.032,3.601,0.035C169.395,408.42,170.337,392.652,170.76,376.872z"/>
		<path style="fill:#97DAD8;" d="M177.754,377.079c-0.424,15.673-1.357,31.334-2.028,47.003c3.268-0.134,5.652-0.388,5.943-0.797
			c1.021-1.437,3.448-44.108,3.448-45.36C185.117,377.564,182.08,377.272,177.754,377.079z"/>
		<path style="opacity:0.27;fill:#7ED1CF;" d="M158.138,376.898c-5.508,0.137-9.695,0.462-9.795,1.026
			c-0.41,2.31,4.165,44.382,4.865,45.36c0.7,0.979,27.44,1.437,28.461,0c0.188-0.265,0.423-1.932,0.683-4.477
			C169.567,408.149,162.12,393.227,158.138,376.898z"/>
		<path style="fill:#3EBAB7;" d="M148.343,377.925c-0.003,3.495,36.563,4.186,36.774,0
			C185.35,373.31,148.347,373.093,148.343,377.925z"/>
		<path style="opacity:0.7;fill:#7ED1CF;" d="M148.632,378.427c3.254,3,35.225,3.457,36.425-0.32
			C172.921,377.15,160.72,377.065,148.632,378.427z"/>
		<path style="fill:#C3EAE9;" d="M181.529,385.987c-0.019,2.68-0.112,5.354-0.281,8.029c-0.06,0.964,1.44,0.96,1.5,0
			c0.169-2.675,0.262-5.35,0.281-8.029C183.036,385.022,181.536,385.021,181.529,385.987L181.529,385.987z"/>
		<path style="fill:#C3EAE9;" d="M180.896,397.884c-0.131,0.819-0.189,1.632-0.14,2.461c0.057,0.959,1.557,0.966,1.5,0
			c-0.04-0.69-0.023-1.379,0.087-2.061c0.064-0.403-0.104-0.803-0.524-0.923C181.462,397.258,180.96,397.484,180.896,397.884
			L180.896,397.884z"/>
	</g>
	<g>
		<path style="fill:#95D9D7;" d="M381.571,269.149c-0.14,0-0.281-0.029-0.417-0.092c-0.502-0.23-0.722-0.824-0.49-1.326
			l27.856-52.188l-13.501-48.092c-0.154-0.53,0.15-1.085,0.681-1.24c0.53-0.158,1.086,0.15,1.239,0.68l13.71,48.809l-28.169,52.867
			C382.313,268.934,381.95,269.149,381.571,269.149z"/>
		<path style="fill:#3EBAB7;" d="M396.066,272.802H368.93v-3.221c0-1.282,1.039-2.32,2.32-2.32h22.496c1.281,0,2.32,1.038,2.32,2.32
			V272.802z"/>
		<path style="fill:#3EBAB7;" d="M412.963,215.622c0,1.865-1.512,3.377-3.377,3.377c-1.865,0-3.378-1.512-3.378-3.377
			c0-1.865,1.513-3.378,3.378-3.378C411.451,212.245,412.963,213.757,412.963,215.622z"/>
		<path style="fill:#78CFCD;" d="M397.609,171.406c0,0,8.059-2.724,6.891-8.811c-1.167-6.087-11.539-2.334-11.539-2.334
			s-13.215-7.872-28.274-1.115c-1.725,0.774,12.831,36.161,15.274,35.36C382.405,193.706,394.59,187.061,397.609,171.406z"/>
		<path style="opacity:0.19;fill:#78CFCD;" d="M404.416,162.256c-1.197,1.824-2.668,3.464-4.584,4.804
			c-4.534,3.171-9.928,3.47-14.817,5.676c-4.624,2.087-5.857,10.179-7.662,14.448c-0.329,0.777-0.668,1.547-1.014,2.314
			c1.663,3.174,3.017,5.206,3.622,5.007c2.444-0.8,14.629-7.444,17.648-23.1c0,0,8.059-2.724,6.891-8.811
			C404.477,162.476,404.445,162.367,404.416,162.256z"/>
		<path style="fill:#3EBAB7;" d="M364.686,159.145c-6.788,3.346,6.117,39.718,15.274,35.36
			C388.129,190.619,371.499,155.788,364.686,159.145z"/>
		<linearGradient id="SVGID_1_" gradientUnits="userSpaceOnUse" x1="372.4243" y1="169.3378" x2="323.8246" y2="195.5987">
			<stop  offset="0" style="stop-color:#FFCD6B"/>
			<stop  offset="1" style="stop-color:#FFCD6B;stop-opacity:0"/>
		</linearGradient>
		<path style="fill:url(#SVGID_1_);" d="M374.327,167.273l-50.767-0.589c0,0-9.018,33.209,17.495,48.661l39.632-34.069
			C380.686,181.276,378.087,173.317,374.327,167.273z"/>
		<path style="opacity:0.77;fill:#C3EAE9;" d="M374.853,160.585c2.079-0.312,4.139-0.174,6.169,0.367
			c0.934,0.249,1.332-1.197,0.398-1.446c-2.305-0.614-4.609-0.721-6.966-0.367C373.503,159.281,373.908,160.727,374.853,160.585
			L374.853,160.585z"/>
		<path style="opacity:0.77;fill:#C3EAE9;" d="M384.083,161.423c0.746,0.131,1.492,0.263,2.239,0.394
			c0.943,0.166,1.349-1.279,0.398-1.446c-0.746-0.131-1.492-0.263-2.239-0.394C383.537,159.811,383.132,161.256,384.083,161.423
			L384.083,161.423z"/>
		<path style="opacity:0.77;fill:#C3EAE9;" d="M396.645,162.956c1.078-0.351,2.154-0.484,3.285-0.41c0.963,0.063,0.959-1.438,0-1.5
			c-1.252-0.081-2.491,0.076-3.684,0.464C395.332,161.807,395.723,163.255,396.645,162.956L396.645,162.956z"/>
		<path style="opacity:0.77;fill:#C3EAE9;" d="M371.917,270.249c0.458,0,0.917,0,1.376,0c0.965,0,0.967-1.5,0-1.5
			c-0.459,0-0.918,0-1.376,0C370.951,268.749,370.95,270.249,371.917,270.249L371.917,270.249z"/>
		<path style="opacity:0.77;fill:#C3EAE9;" d="M376.15,270.144c2.54,0,5.081,0,7.621,0c0.965,0,0.967-1.5,0-1.5
			c-2.54,0-5.081,0-7.621,0C375.185,268.644,375.184,270.144,376.15,270.144L376.15,270.144z"/>
	</g>
	<g>
		<path style="fill:#303850;" d="M236.442,317.034c-6.568,2.663-28.243,20.349-57.37,23.787c-1.866,0.221-1.347,9.357,1.689,9.018
			c3.036-0.339,16.849,2.575,35.642-2.268c18.792-4.842,31.529-13.425,35.85-15.946
			C256.573,329.103,250.931,311.161,236.442,317.034z"/>
		<path style="opacity:0.47;fill:#303850;" d="M236.442,317.034c-6.568,2.663-28.243,20.349-57.37,23.787
			c-1.866,0.221-1.347,9.357,1.689,9.018c3.036-0.339,16.849,2.575,35.642-2.268c18.792-4.842,31.529-13.425,35.85-15.946
			C256.573,329.103,250.931,311.161,236.442,317.034z"/>
		<path style="fill:#303850;" d="M271.139,289.13c-7.873,2.724-41.649,3.124-55.305,8.388c-13.657,5.265-9.975,25.683-4.126,36.422
			c5.849,10.739,32.456,47.987,33.405,49.322c0.95,1.334,7.402-4.824,6.685-6.052c-0.718-1.229-8.52-27.469-10.906-36.695
			c-2.387-9.227-3.292-18.451-1.912-19.54c1.381-1.089,19.312,2.533,38.587,0.523c19.275-2.01,29.353-3.999,35.451-12.617
			C319.117,300.263,282.293,285.272,271.139,289.13z"/>
		<path style="fill:#303850;" d="M281.74,153.174c-0.059,0.99,3.48,1.186,4.283,2.205c0.803,1.019,7.919,8.572,20.581,14.944
			c12.662,6.372,19.773,38.877,21.125,44.336c1.351,5.459,2.775,43.989,4.617,44.957s13.958,0.959,19.735-5.62
			c1.063-1.21-5.014-10.406-4.853-32.131c0.16-21.725,6.363-45.316,4.347-63.431c-2.017-18.115-16.374-27.391-29.15-20.748
			c0,0-5.957-7.184-17.992-6.946C293.406,130.958,282.501,140.373,281.74,153.174z"/>
		<path style="opacity:0.17;fill:#303850;" d="M305.865,130.753c-0.47-0.014-0.942-0.023-1.432-0.013
			c-11.027,0.218-21.933,9.632-22.693,22.434c-0.059,0.99,3.48,1.186,4.283,2.205c0.425,0.54,2.638,2.917,6.496,5.976
			C295.423,150.689,300.156,140.493,305.865,130.753z"/>
		<path style="opacity:0.17;fill:#303850;" d="M298.652,165.746c1.999,1.296,4.212,2.616,6.658,3.9
			c2.349-12.476,5.882-24.71,10.399-36.68c-0.751-0.341-1.569-0.661-2.446-0.949C306.777,142.73,301.48,153.918,298.652,165.746z"/>
		<path style="opacity:0.17;fill:#303850;" d="M311.569,174.365c3.316,3.766,6.137,9.196,8.453,14.884
			c0.434-2.964,0.771-5.948,0.982-8.954c1.012-14.353,0.939-28.82,0.616-43.238C317.157,149.233,313.724,161.668,311.569,174.365z"
			/>
		<path style="opacity:0.17;fill:#303850;" d="M328.814,144.085c0.256,13.303,0.178,26.649-1.112,39.802
			c-0.616,6.287-1.697,12.46-3.162,18.528c1.677,5.739,2.745,10.452,3.189,12.244c0.561,2.272,1.138,10.278,1.75,18.918
			c0.637-11.784,2.742-23.75,3.814-35.523C334.827,181.227,336.024,160.424,328.814,144.085z"/>
		<path style="opacity:0.17;fill:#303850;" d="M347.229,221.865c0.16-21.725,6.363-45.316,4.347-63.431
			c-1.502-13.492-9.851-22.075-19.292-22.835c9.295,15.981,9.521,36.656,8.542,54.641c-1.239,22.773-8.854,47.58-1.889,69.654
			c4.363-0.494,9.809-2.101,13.145-5.898C353.145,252.786,347.068,243.59,347.229,221.865z"/>
		<path style="fill:#FFC8BE;" d="M286.023,155.378c-2.751,7.14-4.283,24.792,0.816,32.891c5.522,8.767,18.281,12.778,13.134,25.821
			c0,0,14.082,5.964,29.265-1.708c0,0-6.845-11.067-5.281-29.903c0,0,8.832-0.123,6.723-8.75c-1.511-6.176-7.58-2.607-7.58-2.607
			s-3.465-0.497-4.33-1.53c0,0,2.105-10.258,1.331-10.63c-0.775-0.372-5.333,4.136-5.515,8.746
			c-0.051,1.266-6.434-1.785-6.434-2.971c0-3.181,2.825-7.175,2.626-7.824c-0.199-0.648-3.794,2.421-5.5,4.967
			C304.823,162.559,286.023,155.378,286.023,155.378z"/>
		<path style="opacity:0.27;fill:#FFC8BE;" d="M323.881,183.561c-4.025,5.809-8.9,10.968-14.927,14.939
			c-2.84,1.872-5.829,3.509-8.919,4.958c1.369,2.871,1.673,6.238-0.062,10.632c0,0,14.082,5.964,29.265-1.708
			C329.238,212.383,322.662,201.735,323.881,183.561z"/>
		<path style="opacity:0.64;fill:#FF727C;" d="M305.707,174.765c-0.011,2.274,6.105,4.464,7.006,0.985
			C313.475,172.806,305.722,171.652,305.707,174.765z"/>
		<path style="opacity:0.64;fill:#FF727C;" d="M284.564,169.841c-0.523,2.122,3.653,3.41,4.511,0.964
			C289.849,168.602,285.147,167.48,284.564,169.841z"/>
		<path style="fill:#FFC8BE;" d="M245.649,259.026c-4.644-1.237-15.121-1.565-15.134,6.649c-0.004,2.747,14.363,0.343,15.134-0.262
			C246.42,264.81,246.722,259.313,245.649,259.026z"/>
		<path style="fill:#FFC8BE;" d="M231.319,267.002c-4.92-1.34-19.228-1.047-19.808,5.8c-0.047,0.554,13.027,0.147,16.497,0.086
			C231.479,272.826,232.811,267.408,231.319,267.002z"/>
		<path style="fill:#9DE8F4;" d="M244.691,256.586c-1.879,0.517-1.947,7.871-0.495,8.35c1.452,0.479,24.188-0.771,26.942-0.882
			c2.753-0.111,4.841-8.415,2.078-9.104C270.455,254.261,245.854,256.267,244.691,256.586z"/>
		<path style="opacity:0.54;fill:#9DE8F4;" d="M244.691,256.586c-1.879,0.517-1.947,7.871-0.495,8.35
			c1.452,0.479,24.188-0.771,26.942-0.882c2.753-0.111,4.841-8.415,2.078-9.104C270.455,254.261,245.854,256.267,244.691,256.586z"
			/>
		<path style="fill:#A7EAF5;" d="M233.614,264.079c-2.708,0-9.187,6.223-9.187,8.967c0,1.254,17.025,2.588,27.833,1.948
			c11.966-0.708,23.223-5.474,24.095-5.712c0.872-0.237-5.824,19.253-6.022,20.886c-0.199,1.632,3.043,8.371,11.572,13.497
			c7.696,4.625,14.849,6.939,28.86,6.939c14.012,0,23.42-14.081,25.084-33.359c1.663-19.279-0.218-48.466-1.639-54.597
			c-1.422-6.131-5.186-13.48-7.077-14.565c-1.092-0.627-1.285,4.713-11.984,5.031c-10.7,0.318-12.542-4.405-13.975-3.987
			c-1.433,0.419-7.119,12.771-17.2,28.925C273.892,254.207,258.852,264.079,233.614,264.079z"/>
		<path style="fill:#0F061E;" d="M179.072,340.821c-1.791,0.22-5.229-0.259-8.037-3.383c-2.808-3.123-4.769-9.229-7.092-8.709
			c-2.322,0.521-2.615,3.549,2.114,11.818c4.729,8.268,3.048,11.599,6.608,12.565c3.559,0.967,5.615-3.38,8.096-3.274
			C180.762,349.839,179.759,340.737,179.072,340.821z"/>
		<path style="fill:#0F061E;" d="M244.589,382.525c0.811,1.682,2.414,5.175,1.34,9.465c-1.074,4.29-4.2,9.767-5.534,12.382
			c-1.334,2.615,1.599,4.272,4.971,1.918c3.372-2.354,8.333-8.887,11.519-14.599c3.185-5.713,2.655-10.359,0-11.872
			c-2.655-1.512-4.52-2.993-5.592-3.952C250.219,374.907,243.861,381.018,244.589,382.525z"/>
		<path style="fill:#8E4956;" d="M325.254,177.485c0.344-0.351,0.699-0.734,1.156-0.935c0.52-0.228,1.01-0.06,1.533,0.061
			c0.491,0.113,0.742-0.43,0.46-0.79c-1.232-1.567-3.052-0.354-4.061,0.751C323.785,177.184,324.67,178.082,325.254,177.485
			L325.254,177.485z"/>
		<path style="fill:#8E4956;" d="M300.547,189.789c2.797,3.821,8.947,1.721,11.341-1.541c0.335-0.456-0.329-1.113-0.785-0.785
			c-2.754,1.979-6.65,4.717-9.79,1.735C300.93,188.834,300.207,189.324,300.547,189.789L300.547,189.789z"/>
		<path style="fill:#8E4956;" d="M294.463,169.567c-0.138,4.232,0.758,8.393-2.646,11.592c-0.414,0.389,0.111,0.977,0.578,0.75
			c4.464-2.171,3.028-8.47,3.053-12.342C295.452,168.932,294.483,168.934,294.463,169.567L294.463,169.567z"/>
		<path style="fill:#8E4956;" d="M301.927,173.79c0.612-1.093,2.367-2.252,3.658-1.602c0.814,0.41,0.954,1.598,1.121,2.405
			c0.178,0.864,1.461,0.49,1.313-0.362c-0.275-1.565-0.753-3.304-2.569-3.543c-1.934-0.254-3.795,0.878-4.414,2.726
			C300.859,173.941,301.658,174.268,301.927,173.79L301.927,173.79z"/>
		<path style="fill:#8E4956;" d="M325.683,176.998c0.563,0.321,0.535,0.919,0.378,1.479c-0.148,0.526,0.483,0.811,0.858,0.499
			c1.142-0.954,0.387-2.55-0.802-3.008C325.513,175.735,325.139,176.687,325.683,176.998L325.683,176.998z"/>
		<path style="opacity:0.57;fill:#FFD7D0;" d="M285.399,179.314c0.243,1.723,0.685,3.382,1.331,4.998
			c0.354,0.885,1.806,0.499,1.446-0.399c-0.646-1.616-1.088-3.275-1.331-4.998C286.712,177.963,285.267,178.368,285.399,179.314
			L285.399,179.314z"/>
		<path style="opacity:0.57;fill:#FFD7D0;" d="M287.902,186.715c0.305,0.624,0.789,1.121,1.392,1.463
			c0.841,0.477,1.598-0.818,0.757-1.295c-0.395-0.224-0.654-0.518-0.853-0.924C288.773,185.091,287.479,185.851,287.902,186.715
			L287.902,186.715z"/>
		<path style="opacity:0.77;fill:#B7B9C2;" d="M213.565,329.749c2.297,3.589,4.398,7.286,6.307,11.096
			c0.433,0.863,1.727,0.104,1.295-0.757c-1.909-3.81-4.01-7.507-6.308-11.096C214.341,328.182,213.042,328.933,213.565,329.749
			L213.565,329.749z"/>
		<path style="opacity:0.77;fill:#B7B9C2;" d="M221.41,343.756c0.503,0.821,1.007,1.642,1.51,2.463
			c0.504,0.821,1.802,0.068,1.295-0.757c-0.503-0.821-1.007-1.642-1.511-2.463C222.201,342.178,220.903,342.931,221.41,343.756
			L221.41,343.756z"/>
		<path style="opacity:0.77;fill:#B7B9C2;" d="M234.852,298.554c3.852-0.799,7.725-1.459,11.627-1.969
			c0.944-0.123,0.956-1.625,0-1.5c-4.035,0.527-8.041,1.196-12.026,2.022C233.509,297.303,233.908,298.749,234.852,298.554
			L234.852,298.554z"/>
		<path style="opacity:0.77;fill:#B7B9C2;" d="M249.89,296.275c1.432-0.139,2.864-0.277,4.296-0.416c0.952-0.093,0.962-1.594,0-1.5
			c-1.433,0.139-2.864,0.277-4.296,0.416C248.938,294.868,248.928,296.369,249.89,296.275L249.89,296.275z"/>
		<path style="opacity:0.77;fill:#B7B9C2;" d="M345.98,179.622c-0.556,5.371-1.111,10.741-1.667,16.112
			c-0.099,0.96,1.401,0.953,1.5,0c0.556-5.371,1.111-10.741,1.667-16.112C347.58,178.663,346.079,178.67,345.98,179.622
			L345.98,179.622z"/>
		<path style="opacity:0.77;fill:#B7B9C2;" d="M343.939,198.863c0.033,1.159-0.004,2.314-0.112,3.468c-0.09,0.96,1.411,0.954,1.5,0
			c0.108-1.155,0.146-2.309,0.112-3.468C345.411,197.899,343.911,197.895,343.939,198.863L343.939,198.863z"/>
		<path style="opacity:0.77;fill:#E6F9FC;" d="M265.84,260.213c5.65-3.093,10.729-6.959,15.217-11.58
			c0.673-0.693-0.387-1.755-1.06-1.061c-4.397,4.529-9.376,8.315-14.913,11.346C264.235,259.381,264.992,260.677,265.84,260.213
			L265.84,260.213z"/>
		<path style="opacity:0.77;fill:#E6F9FC;" d="M282.956,246.292c0.839-0.695,1.607-1.46,2.308-2.295
			c0.616-0.735-0.44-1.802-1.061-1.061c-0.7,0.835-1.469,1.6-2.308,2.295C281.152,245.848,282.218,246.904,282.956,246.292
			L282.956,246.292z"/>
		<path style="fill:#8E4956;" d="M287.262,169.488c0.607-0.948,2.056-2.26,3.207-1.486c0.678,0.456,0.892,1.334,1.049,2.089
			c0.12,0.578,1.074,0.456,1.037-0.14c-0.084-1.346-0.558-2.797-1.933-3.32c-1.893-0.72-3.297,0.95-4.203,2.365
			C286.08,169.526,286.924,170.016,287.262,169.488L287.262,169.488z"/>
		<path style="opacity:0.77;fill:#B7B9C2;" d="M295.553,138.619c4.392-1.791,8.929-2.606,13.671-2.436
			c0.965,0.034,0.964-1.466,0-1.5c-4.879-0.174-9.546,0.645-14.069,2.49C294.272,137.533,294.658,138.984,295.553,138.619
			L295.553,138.619z"/>
		<path style="opacity:0.77;fill:#B7B9C2;" d="M312.713,137.056c0.814,0.238,1.58,0.61,2.249,1.135c0.321,0.251,0.747,0.307,1.061,0
			c0.263-0.257,0.318-0.811,0-1.061c-0.879-0.69-1.835-1.205-2.91-1.521C312.184,135.337,311.787,136.784,312.713,137.056
			L312.713,137.056z"/>
	</g>
	<g>
		<g>
			<path style="fill:#FFCD6B;" d="M259.533,323.276c0,0,5.374,68.201,9.738,92.016c0.391,2.134,0.961,1.995,1.322,0
				c0.361-1.994-3.574-78.882-5.53-91.371L259.533,323.276z"/>
			<path style="fill:#FFCD6B;" d="M308.549,323.276c0,0-5.373,68.201-9.737,92.016c-0.391,2.134-0.961,1.995-1.322,0
				c-0.361-1.994,3.574-78.882,5.53-91.371L308.549,323.276z"/>
			<path style="opacity:0.57;fill:#FFCD6B;" d="M266.78,342.856c-0.63-8.839-1.233-15.852-1.717-18.936l-5.53-0.645
				c0,0,0.648,8.225,1.677,19.955C263.066,343.097,264.923,342.974,266.78,342.856z"/>
			<path style="opacity:0.57;fill:#FFCD6B;" d="M307.029,341.434c0.938-10.766,1.52-18.157,1.52-18.157l-5.529,0.645
				c-0.459,2.927-1.025,9.39-1.621,17.597C303.275,341.486,305.152,341.454,307.029,341.434z"/>
			<path style="fill:#FFCD6B;" d="M250.512,374.28c-1.517,0.307-4.115,4.32-2.321,5.24c1.794,0.92,71.506-2.791,72.865-3.188
				c1.359-0.395,1.032-5.186-1.037-5.212C317.949,371.095,253.607,373.654,250.512,374.28z"/>
			<path style="opacity:0.5;fill:#FFCD6B;" d="M250.512,374.28c-1.517,0.307-4.115,4.32-2.321,5.24
				c1.794,0.92,71.506-2.791,72.865-3.188c1.359-0.395,1.032-5.186-1.037-5.212C317.949,371.095,253.607,373.654,250.512,374.28z"/>
			<path style="fill:#FFCD6B;" d="M247.926,323.038c-1.179,10.268-4.97,101.913-4.673,103.735c0.296,1.824,1.511,2.802,1.438,0.068
				c-0.073-2.734,13.205-92.405,14.727-101.467C260.938,316.313,248.575,317.386,247.926,323.038z"/>
			<path style="fill:#FFCD6B;" d="M318.908,320.361c1.872,10.112,11.875,101.05,11.704,102.898
				c-0.172,1.847-1.316,2.945-1.429,0.213c-0.113-2.73-19.436-90.734-21.568-99.609
				C305.483,314.989,317.877,314.795,318.908,320.361z"/>
			<path style="opacity:0.4;fill:#FFCD6B;" d="M257.23,339.564c1.076-7.136,1.876-12.341,2.186-14.189
				c1.521-9.063-10.842-7.989-11.491-2.337c-0.253,2.201-0.626,8.152-1.053,16.15C250.326,339.355,253.778,339.48,257.23,339.564z"
				/>
			<path style="opacity:0.4;fill:#FFCD6B;" d="M310.85,338.193c3.447-0.227,6.894-0.474,10.34-0.737
				c-1.032-8.484-1.861-14.827-2.281-17.095c-1.031-5.566-13.425-5.372-11.293,3.502
				C308.059,325.709,309.247,330.983,310.85,338.193z"/>
			<path style="opacity:0.93;fill:#FFEDCB;" d="M319.916,353.642c0.853,3.844,1.35,7.733,1.488,11.714c0.041,1.18,1.541,1.185,1.5,0
				c-0.145-4.144-0.654-8.2-1.542-12.202C321.109,352.012,319.661,352.497,319.916,353.642L319.916,353.642z"/>
			<path style="opacity:0.93;fill:#FFEDCB;" d="M321.555,369.091c-0.023,0.839,0.045,1.665,0.188,2.485
				c0.201,1.157,1.647,0.667,1.446-0.49c-0.115-0.661-0.153-1.318-0.134-1.995C323.087,367.907,321.587,367.909,321.555,369.091
				L321.555,369.091z"/>
			<path style="opacity:0.93;fill:#FFEDCB;" d="M247.663,365.538c-0.293,3.294-0.482,6.594-0.566,9.905
				c-0.03,1.185,1.47,1.184,1.5,0c0.085-3.312,0.273-6.611,0.566-9.905C249.267,364.363,247.767,364.373,247.663,365.538
				L247.663,365.538z"/>
			<path style="opacity:0.93;fill:#FFEDCB;" d="M246.773,379.366c0,1.058,0,2.116,0,3.175c0,1.184,1.5,1.186,1.5,0
				c0-1.059,0-2.117,0-3.175C248.273,378.182,246.773,378.181,246.773,379.366L246.773,379.366z"/>
		</g>
		<g>
			<path style="fill:#3EBAB7;" d="M343.816,226.939c0,0,0.092-13.999-1.872-16.042c-1.964-2.042-8.898,5.376-8.898,5.376
				s-17.708-3.959-25.826,0.611c0,0-4.342-5.38-7.193-4.17c-2.851,1.21-0.952,13-0.952,13s-4.008,4.351-5.267,35.049
				c-1.259,30.697-0.841,43.277-1.653,44.309c-0.811,1.03-26.329,6.783-60.23,1.646c-7.509-1.137-11,7.135-6.335,13.033
				c4.664,5.897,19.025,10.069,54.689,8.914c35.894-1.163,55.33-3.78,56.222-5.041C337.392,322.361,349.513,263.415,343.816,226.939
				z M311.133,305.266c-0.962,1.539-9.409,2.389-10.745-0.237c-0.754-1.481,2.346-75.195,3.702-72.269
				C314.643,255.515,311.706,304.349,311.133,305.266z M320.05,304.358c-0.017,0.936-1.466,0.972-1.762-0.03
				c-0.296-1.002,0.946-27.717-1.15-45.989c-2.096-18.272-8.818-32.003-8.007-32.45c9.877-5.449,26.701-0.675,25.893,0.896
				c-0.807,1.571-9.826,19.497-11.007,31.795C322.836,270.878,320.066,303.424,320.05,304.358z M336.829,302.491
				c-0.113,1.75-9.75,3.658-9.681-0.169c0.041-2.267,2.282-60.119,11.188-66.746C339.251,234.895,336.941,300.741,336.829,302.491z"
				/>
			<path style="opacity:0.25;fill:#3EBAB7;" d="M336.865,301.663c-0.017,0.444-0.03,0.734-0.036,0.828
				c-0.044,0.673-1.497,1.368-3.264,1.753c-6.553,4.821-13.876,8.671-21.675,11.306c-16.426,5.549-34.245,6.936-51.482,6.83
				c-11.714-0.072-23.392-1.037-34.948-2.816c0.046,0.061,0.081,0.126,0.129,0.186c4.664,5.897,19.025,10.069,54.689,8.914
				c35.895-1.163,55.33-3.78,56.222-5.041c0.372-0.527,2.706-11.133,4.881-25.96C339.93,299.052,338.423,300.386,336.865,301.663z"
				/>
			<path style="opacity:0.77;fill:#C3EAE9;" d="M229.964,311.273c3.913,0.854,7.855,1.478,11.839,1.881
				c0.959,0.097,0.953-1.403,0-1.5c-3.852-0.39-7.659-1.002-11.44-1.828C229.422,309.621,229.02,311.066,229.964,311.273
				L229.964,311.273z"/>
			<path style="opacity:0.77;fill:#C3EAE9;" d="M245.901,313.626c1.507,0.255,3.001,0.321,4.522,0.157c0.95-0.102,0.96-1.604,0-1.5
				c-1.38,0.148-2.753,0.128-4.123-0.104C245.355,312.02,244.95,313.465,245.901,313.626L245.901,313.626z"/>
			<path style="opacity:0.77;fill:#C3EAE9;" d="M310.651,220.148c2.395-0.558,4.808-0.909,7.263-1.052c0.96-0.056,0.966-1.556,0-1.5
				c-2.588,0.15-5.137,0.517-7.661,1.105C309.313,218.92,309.711,220.367,310.651,220.148L310.651,220.148z"/>
			<path style="opacity:0.77;fill:#C3EAE9;" d="M321.413,218.922c1.374,0,2.736,0.1,4.093,0.321c0.944,0.154,1.35-1.291,0.399-1.446
				c-1.49-0.243-2.982-0.375-4.492-0.375C320.448,217.422,320.446,218.922,321.413,218.922L321.413,218.922z"/>
			<path style="opacity:0.77;fill:#C3EAE9;" d="M323.891,290.604c-0.065,2.377-0.131,4.755-0.196,7.133
				c-0.026,0.965,1.474,0.965,1.5,0c0.066-2.378,0.131-4.756,0.196-7.133C325.418,289.639,323.918,289.64,323.891,290.604
				L323.891,290.604z"/>
			<path style="opacity:0.77;fill:#C3EAE9;" d="M323.699,300.532c-0.021,0.845,0.066,1.682,0.246,2.508
				c0.205,0.942,1.652,0.544,1.446-0.399c-0.151-0.699-0.21-1.393-0.192-2.108C325.224,299.566,323.724,299.567,323.699,300.532
				L323.699,300.532z"/>
		</g>
	</g>
</g>
<g id="DESIGNED_BY_FREEPIK">
	<g>
		<g id="XMLID_319_">
			<g id="XMLID_338_">
				<path id="XMLID_346_" style="fill:#A5B7C6;" d="M260.104,467.466c-0.433,0.442-0.804,0.931-1.108,1.452l-0.466-0.24
					c-0.066-0.298-0.349-0.503-0.658-0.467c-0.331,0.039-0.568,0.339-0.529,0.67c0.039,0.331,0.339,0.568,0.67,0.529
					c0.065-0.008,0.127-0.026,0.184-0.053l0.451,0.234c-0.251,0.554-0.433,1.139-0.539,1.744l0.746,0.131
					c0.23-1.306,0.85-2.506,1.792-3.472L260.104,467.466z"/>
				<path id="XMLID_345_" style="fill:#A5B7C6;" d="M265.592,465.163c-0.171,0-0.341,0.007-0.51,0.018l-0.073-0.626
					c0.188-0.149,0.296-0.39,0.266-0.645c-0.046-0.394-0.402-0.675-0.795-0.629c-0.394,0.047-0.675,0.402-0.629,0.796
					c0.03,0.254,0.189,0.461,0.405,0.564l0.073,0.624c-0.714,0.116-1.403,0.332-2.06,0.647l0.327,0.684
					c0.934-0.447,1.941-0.673,2.995-0.673c0.496,0,0.993,0.053,1.475,0.157l0.161-0.741
					C266.692,465.223,266.143,465.163,265.592,465.163z"/>
				<path id="XMLID_344_" style="fill:#A5B7C6;" d="M272.194,467.711c0.331-0.041,0.566-0.342,0.525-0.673
					c-0.04-0.331-0.342-0.565-0.672-0.525c-0.31,0.038-0.535,0.304-0.53,0.608l-0.416,0.363c-0.418-0.43-0.89-0.813-1.408-1.139
					l-0.403,0.641c1.134,0.715,2.02,1.727,2.563,2.926l0.69-0.313c-0.251-0.555-0.567-1.072-0.942-1.545l0.402-0.352
					C272.064,467.716,272.129,467.719,272.194,467.711z"/>
				<path id="XMLID_343_" style="fill:#A5B7C6;" d="M265.044,475.372c-0.386,0.023-0.774,0.034-1.157,0.034
					c-0.88,0-1.732-0.061-2.478-0.179c-0.391-0.063-0.847-0.155-1.27-0.292c1.046,1.86,3.069,3.125,5.389,3.125
					c2.855,0,5.262-1.916,5.949-4.504c-0.682,0.449-1.506,0.825-2.459,1.123C267.839,475.047,266.464,475.286,265.044,475.372z"/>
				<path id="XMLID_339_" style="fill:#A5B7C6;" d="M265.592,466.68c-3.353,0-6.079,2.666-6.079,5.943
					c0,0.426,0.046,0.849,0.137,1.262c0.674,0.482,2.706,0.89,5.348,0.73c2.879-0.173,5.297-0.957,6.672-2.158
					c-0.005-0.195-0.021-0.391-0.045-0.582C271.244,468.913,268.65,466.68,265.592,466.68z M263.433,473.194
					c-1.021,0-1.85-0.83-1.85-1.85c0-1.021,0.829-1.85,1.85-1.85c1.02,0,1.85,0.829,1.85,1.85
					C265.282,472.364,264.452,473.194,263.433,473.194z M268.17,472.286c-0.75,0-1.36-0.61-1.36-1.36s0.61-1.36,1.36-1.36
					s1.36,0.61,1.36,1.36S268.92,472.286,268.17,472.286z"/>
			</g>
			<path id="XMLID_336_" style="fill:#A5B7C6;" d="M281.596,468.547c-0.295-0.116-0.806-0.309-1.383-0.237
				c-0.551,0.068-0.844,0.341-0.844,1.007v0.865h2.228v1.718h-2.228v5.454h-1.932v-5.454h-1.34v-1.718h1.34v-0.888
				c0-1.681,0.896-2.783,2.568-2.783c0.642,0,1.157,0.122,1.59,0.309V468.547z"/>
			<path id="XMLID_334_" style="fill:#A5B7C6;" d="M286.298,471.879c-0.177-0.03-0.357-0.047-0.526-0.047
				c-0.895,0-1.51,0.548-1.51,1.614v3.907h-1.932v-7.172h1.873v0.785c0.451-0.674,1.14-0.978,2.021-0.978
				c0.414,0,0.848,0.128,1.094,0.337L286.298,471.879z"/>
			<path id="XMLID_331_" style="fill:#A5B7C6;" d="M293.965,473.757c0,0.222-0.015,0.488-0.037,0.651h-5.084
				c0.207,1.036,0.933,1.487,1.843,1.487c0.621,0,1.295-0.251,1.814-0.688l1.132,1.243c-0.813,0.747-1.85,1.088-3.057,1.088
				c-2.198,0-3.723-1.495-3.723-3.753c0-2.257,1.481-3.797,3.627-3.797C292.544,469.989,293.958,471.522,293.965,473.757z
				 M288.851,473.091h3.175c-0.177-0.918-0.732-1.436-1.561-1.436C289.554,471.654,289.021,472.202,288.851,473.091z"/>
			<path id="XMLID_328_" style="fill:#A5B7C6;" d="M301.618,473.757c0,0.222-0.015,0.488-0.037,0.651h-5.084
				c0.207,1.036,0.933,1.487,1.843,1.487c0.621,0,1.295-0.251,1.814-0.688l1.132,1.243c-0.814,0.747-1.851,1.088-3.057,1.088
				c-2.198,0-3.723-1.495-3.723-3.753c0-2.257,1.48-3.797,3.626-3.797C300.197,469.989,301.611,471.522,301.618,473.757z
				 M296.504,473.091h3.176c-0.178-0.918-0.733-1.436-1.563-1.436C297.207,471.654,296.674,472.202,296.504,473.091z"/>
			<path id="XMLID_325_" style="fill:#A5B7C6;" d="M309.964,473.765c0,2.153-1.495,3.775-3.471,3.775
				c-0.963,0-1.644-0.378-2.109-0.933v3.708h-1.925v-10.133h1.888v0.792c0.466-0.585,1.154-0.984,2.139-0.984
				C308.469,469.989,309.964,471.61,309.964,473.765z M304.287,473.765c0,1.132,0.748,1.976,1.843,1.976
				c1.14,0,1.851-0.881,1.851-1.976c0-1.096-0.711-1.977-1.851-1.977C305.035,471.788,304.287,472.632,304.287,473.765z"/>
			<path id="XMLID_322_" style="fill:#A5B7C6;" d="M313.067,467.836c0,0.695-0.54,1.229-1.235,1.229c-0.696,0-1.23-0.533-1.23-1.229
				c0-0.696,0.533-1.244,1.23-1.244C312.527,466.592,313.067,467.14,313.067,467.836z M312.809,477.353h-1.932v-7.172h1.932V477.353
				z"/>
			<path id="XMLID_320_" style="fill:#A5B7C6;" d="M316.032,472.735l2.701-2.554h2.369l-3.479,3.375l3.501,3.797h-2.376
				l-2.716-2.901v2.901h-1.932v-10.657h1.932V472.735z"/>
		</g>
		<g>
			<path style="fill:#A5B7C6;" d="M184.413,477.289v-1.055c-0.527,0.718-1.392,1.23-2.388,1.23c-1.846,0-3.149-1.406-3.149-3.706
				c0-2.256,1.289-3.721,3.149-3.721c0.952,0,1.816,0.469,2.388,1.245v-3.765h1.099v9.771H184.413z M184.413,475.37v-3.208
				c-0.396-0.615-1.245-1.143-2.124-1.143c-1.421,0-2.27,1.172-2.27,2.739c0,1.567,0.85,2.725,2.27,2.725
				C183.167,476.483,184.017,475.985,184.413,475.37z"/>
			<path style="fill:#A5B7C6;" d="M186.932,473.744c0-2.051,1.465-3.706,3.486-3.706c2.139,0,3.398,1.67,3.398,3.794v0.278h-5.727
				c0.088,1.333,1.025,2.446,2.549,2.446c0.806,0,1.626-0.322,2.183-0.894l0.527,0.718c-0.703,0.703-1.655,1.084-2.813,1.084
				C188.44,477.465,186.932,475.956,186.932,473.744z M190.403,470.946c-1.509,0-2.256,1.274-2.314,2.358h4.643
				C192.718,472.25,192.015,470.946,190.403,470.946z"/>
			<path style="fill:#A5B7C6;" d="M194.607,476.352l0.571-0.791c0.469,0.542,1.362,1.011,2.329,1.011c1.084,0,1.67-0.513,1.67-1.216
				c0-1.714-4.38-0.659-4.38-3.281c0-1.099,0.952-2.036,2.637-2.036c1.201,0,2.051,0.454,2.622,1.025l-0.513,0.762
				c-0.424-0.513-1.201-0.894-2.109-0.894c-0.967,0-1.567,0.483-1.567,1.113c0,1.553,4.379,0.527,4.379,3.281
				c0,1.186-0.952,2.139-2.783,2.139C196.306,477.465,195.325,477.113,194.607,476.352z"/>
			<path style="fill:#A5B7C6;" d="M201.477,468.471c0-0.41,0.337-0.747,0.732-0.747c0.41,0,0.747,0.337,0.747,0.747
				c0,0.41-0.337,0.732-0.747,0.732C201.814,469.203,201.477,468.881,201.477,468.471z M201.667,477.289v-7.075h1.099v7.075H201.667
				z"/>
			<path style="fill:#A5B7C6;" d="M204.582,479.105l0.557-0.82c0.586,0.703,1.289,0.967,2.3,0.967c1.172,0,2.27-0.571,2.27-2.124
				v-1.011c-0.512,0.718-1.376,1.26-2.373,1.26c-1.845,0-3.149-1.377-3.149-3.662c0-2.271,1.289-3.677,3.149-3.677
				c0.952,0,1.802,0.469,2.373,1.245v-1.069h1.099v6.87c0,2.344-1.641,3.076-3.369,3.076
				C206.237,480.16,205.417,479.926,204.582,479.105z M209.708,475.253v-3.091c-0.381-0.615-1.23-1.143-2.109-1.143
				c-1.421,0-2.271,1.128-2.271,2.695c0,1.553,0.849,2.695,2.271,2.695C208.478,476.41,209.328,475.868,209.708,475.253z"/>
			<path style="fill:#A5B7C6;" d="M217.413,477.289v-4.629c0-1.245-0.629-1.641-1.582-1.641c-0.865,0-1.685,0.527-2.095,1.099v5.171
				h-1.099v-7.075h1.099v1.025c0.498-0.586,1.464-1.201,2.519-1.201c1.48,0,2.256,0.747,2.256,2.285v4.966H217.413z"/>
			<path style="fill:#A5B7C6;" d="M219.933,473.744c0-2.051,1.465-3.706,3.486-3.706c2.138,0,3.399,1.67,3.399,3.794v0.278h-5.728
				c0.088,1.333,1.025,2.446,2.549,2.446c0.806,0,1.626-0.322,2.183-0.894l0.527,0.718c-0.703,0.703-1.655,1.084-2.813,1.084
				C221.441,477.465,219.933,475.956,219.933,473.744z M223.404,470.946c-1.509,0-2.256,1.274-2.314,2.358h4.643
				C225.718,472.25,225.015,470.946,223.404,470.946z"/>
			<path style="fill:#A5B7C6;" d="M233.35,477.289v-1.055c-0.527,0.718-1.392,1.23-2.388,1.23c-1.845,0-3.149-1.406-3.149-3.706
				c0-2.256,1.289-3.721,3.149-3.721c0.952,0,1.817,0.469,2.388,1.245v-3.765h1.098v9.771H233.35z M233.35,475.37v-3.208
				c-0.396-0.615-1.245-1.143-2.124-1.143c-1.421,0-2.27,1.172-2.27,2.739c0,1.567,0.85,2.725,2.27,2.725
				C232.105,476.483,232.954,475.985,233.35,475.37z"/>
			<path style="fill:#A5B7C6;" d="M239.692,477.289v-9.771h1.099v3.765c0.572-0.776,1.421-1.245,2.388-1.245
				c1.846,0,3.149,1.465,3.149,3.721c0,2.3-1.304,3.706-3.149,3.706c-0.996,0-1.86-0.513-2.388-1.23v1.055H239.692z M242.9,476.483
				c1.436,0,2.286-1.157,2.286-2.725c0-1.567-0.85-2.739-2.286-2.739c-0.864,0-1.729,0.527-2.109,1.143v3.208
				C241.171,475.985,242.036,476.483,242.9,476.483z"/>
			<path style="fill:#A5B7C6;" d="M247.528,479.061c0.161,0.073,0.425,0.117,0.601,0.117c0.483,0,0.805-0.161,1.055-0.747
				l0.468-1.069l-2.959-7.148h1.187l2.358,5.801l2.344-5.801h1.201l-3.545,8.511c-0.425,1.025-1.143,1.421-2.08,1.436
				c-0.234,0-0.601-0.044-0.806-0.103L247.528,479.061z"/>
		</g>
	</g>
</g>
</svg>
