<?xml version="1.0" encoding="utf-8"?>
<!-- Generator: Adobe Illustrator 27.5.0, SVG Export Plug-In . SVG Version: 6.00 Build 0)  -->
<svg version="1.1" xmlns="http://www.w3.org/2000/svg" xmlns:xlink="http://www.w3.org/1999/xlink" x="0px" y="0px"
	 viewBox="0 0 500 500" style="enable-background:new 0 0 500 500;" xml:space="preserve">
<g id="BACKGROUND">
	<rect style="fill:#FFFFFF;" width="500" height="500"/>
</g>
<g id="OBJECTS">
	<g>
		<path style="fill:#B6B9D1;" d="M463.705,443.197H36.295c-2.983,0-5.401-2.418-5.401-5.401l0,0c0-2.983,2.418-5.401,5.401-5.401
			h427.41c2.983,0,5.401,2.418,5.401,5.401l0,0C469.106,440.779,466.688,443.197,463.705,443.197z"/>
		<g>
			<g>
				<path style="fill:#61648A;" d="M380.784,410.689c2.208,8.048,3.007,17.743,0.32,21.213c-2.687,3.47-29.048,5.264-32.854,1.344
					c-3.806-3.921,12.531-4.736,13.992-10.851c1.461-6.115,5.468-16.626,5.468-16.626L380.784,410.689z"/>
				<path style="fill:#61648A;" d="M336.248,410.689c2.208,8.048,3.007,17.743,0.32,21.213c-2.687,3.47-29.048,5.264-32.854,1.344
					c-3.805-3.921,12.531-4.736,13.992-10.851c1.461-6.115,5.468-16.626,5.468-16.626L336.248,410.689z"/>
				<path style="fill:#2A2B3D;" d="M383.71,221.392c5.809,27.251,2.799,193.792,2.799,193.792h-24.219L346.379,216.54
					L383.71,221.392z"/>
				<path style="fill:#2A2B3D;" d="M325.085,221.392l-9.305,193.792h23.075c0,0,20.584-127.915,21.829-129.42
					c1.245-1.505-14.305-69.225-14.305-69.225L325.085,221.392z"/>
				<path style="opacity:0.47;fill:#1B1D28;" d="M350.137,271.207c-9.441,40.548-0.48,77.68-0.48,77.68l5.266-31.476
					L350.137,271.207z"/>
				<polyline style="fill:none;stroke:#3B3D4F;stroke-miterlimit:10;" points="347.486,221.389 347.486,255.01 350.556,256.751 
					350.556,220.767 				"/>
				<path style="opacity:0.47;fill:#1B1D28;" d="M324.93,227.965c22.555,0.054,60.91,15.394,60.91,15.394s0.289-15.707-2.13-21.966
					c-2.42-6.26-58.624,0-58.624,0L324.93,227.965z"/>
				<g>
					<path style="fill:#F4B8AB;" d="M277.393,162.815c-1.82-5.813-2.385-10.286-4.921-11.38c-2.234-0.964-0.016,4.558-0.016,4.558
						s-8.02-6.449-11.296-5.83c-3.277,0.62,2.201,2.683,2.201,2.683s-5.126-2.414-6.053-0.983c-0.505,0.779,4.053,3.431,4.053,3.431
						s-3.792-1.568-4.44-0.641c-0.648,0.927,3.757,4.658,3.757,4.658s-3.042-1.835-3.297-0.734
						c-0.255,1.101,16.292,10.81,16.292,10.81L277.393,162.815z"/>
					<path style="fill:none;stroke:#E56A85;stroke-linecap:round;stroke-miterlimit:10;" d="M266.153,158.415
						c4.068,0.654,6.547,3.09,6.547,3.09"/>
				</g>
				<path style="fill:#61648A;" d="M389.889,177.364l-6.177,44.028h-58.63l-0.24-38.83c0,0-8.665,13.843-17.254,13.603
					c-5.63-0.163-19.579-10.433-28.551-17.513c-0.009-0.01-0.009-0.01-0.019-0.01c-0.009-0.01-0.009-0.01-0.009-0.01
					c-4.727-3.737-8.06-6.571-8.06-6.571l6.148-13.382l28.862,10.221c8.277-12.551,24.322-29.137,36.81-27.898l13.392-1.844
					L389.889,177.364z"/>
				<path style="opacity:0.36;fill:#383952;" d="M369.585,159.96c7.415,20.957-9.074,20.179-17.461,25.363
					c-8.387,5.183-11.044,25.92-19.071,26.363c-8.026,0.443-8.122-14.619-8.122-14.619l0.155,24.325h58.624l6.184-44.03
					L369.585,159.96z"/>
				<g>
					<path style="fill:#FFFFFF;" d="M352.678,207.171h-7.935c-0.891,0-1.634-0.68-1.714-1.567l-1.781-19.908h14.924l-1.781,19.908
						C354.312,206.491,353.568,207.171,352.678,207.171z"/>
					<path style="fill:#DFE0E5;" d="M356.1,185.323c0,1.079-3.309,1.953-7.39,1.953c-4.082,0-7.39-0.874-7.39-1.953
						c0-1.079,3.309-1.953,7.39-1.953C352.792,183.37,356.1,184.244,356.1,185.323z"/>
					<g>
						<path style="fill:#FFFFFF;" d="M358.189,204.835h-7.633V189.3h7.633c1.905,0,3.456,1.55,3.456,3.456v8.623
							C361.645,203.285,360.094,204.835,358.189,204.835z M352.477,202.913h5.711c0.846,0,1.535-0.689,1.535-1.535v-8.623
							c0-0.846-0.689-1.535-1.535-1.535h-5.711V202.913z"/>
					</g>
				</g>
				<path style="fill:#F4B8AB;" d="M371.34,187.295c-2.47,0.191-5.83-0.616-7.712-1.422c-1.882-0.807-5.645,1.344-6.317,2.419
					c-0.672,1.075,3.495,1.344,3.495,1.344s-5.645,1.882-5.376,3.495s2.688,1.613,2.688,1.613s0.941,6.586,3.629,8.064
					c2.688,1.479,9.677-1.613,10.484-2.554c0.806-0.941,2.285-3.763,4.435-4.301C378.816,195.415,371.34,187.295,371.34,187.295z"/>
				<path style="fill:#61648A;" d="M356.158,139.154c8.662-2.053,28.754,0.383,38.125,13.421
					c9.371,13.038,24.928,34.745,22.076,40.041s-40.662,6.824-40.662,6.824l-4.97-13.853l10.398-7.742L356.158,139.154z"/>
				<path style="fill:#7C81A5;" d="M346.505,139.699c-7.191,1.486-4.553,13.593-4.553,13.593l9.867-5.783l10.949,1.889
					c0,0-0.662-9.044-6.61-10.244C350.21,137.953,346.505,139.699,346.505,139.699z"/>
				<path style="fill:#6D3744;" d="M377.948,117.051c-2.413,13.417-21.103,18.222-21.103,18.222l-10.706-14.108l-7.973-10.504
					c0,0-7.219,1.85-9.26-1.658c-2.031-3.519,2.222-5.922,2.222-5.922s-9.068-4.816-6.846-11.29c2.18-6.357,13.459-2.02,13.874-1.86
					c-0.33-0.415-8.813-11.014-3.625-16.085c5.294-5.188,19.179,1.85,24.165,13.874c0,0,0.191-6.474,4.072-6.294
					c3.891,0.191,8.664,11.11,7.569,14.618C370.336,96.044,380.351,103.624,377.948,117.051z"/>
				<path style="fill:#542633;" d="M377.948,117.051c-2.413,13.417-21.103,18.222-21.103,18.222l-10.706-14.108
					c0.702-4.125,0.595-11.684,5.751-15.426c5.868-4.263,12.555-0.723,18.445-9.696C370.336,96.044,380.351,103.624,377.948,117.051
					z"/>
				<g>
					<path style="fill:#F4B8AB;" d="M335.134,112.279c-2.009,11.493,0.887,24.695,10.653,25.118l0.225,3.982
						c0.167,2.95,2.693,5.206,5.643,5.04l0,0c2.95-0.167,5.206-2.693,5.039-5.643l-0.225-3.982c0,0,7.583-3.741,8.862-8.684
						c1.28-4.943-0.044-0.777-0.044-0.777l-0.428-19.85l-26.573,1.501L335.134,112.279z"/>
					<path style="fill:#F4B8AB;" d="M364.378,119.916c2.191-4.592,5.17-2.886,5.89-0.333c0.721,2.553-4.096,9.141-5.514,7
						C363.337,124.443,364.378,119.916,364.378,119.916z"/>
					<g>
						<path style="fill:#191918;" d="M352.499,121.739c0.591-0.034,0.849-0.783,0.767-2.229c-0.082-1.445-0.422-2.162-1.013-2.128
							c-0.591,0.033-0.849,0.784-0.767,2.229C351.568,121.056,351.909,121.772,352.499,121.739z"/>
					</g>
					<g>
						<path style="fill:#191918;" d="M342.001,122.331c0.591-0.033,0.849-0.783,0.767-2.229c-0.082-1.445-0.422-2.162-1.013-2.128
							c-0.591,0.033-0.849,0.784-0.767,2.229C341.069,121.649,341.41,122.365,342.001,122.331z"/>
					</g>
					<path style="fill:#E56A85;" d="M346.263,129.167c5.035-0.168,8.729-4.009,8.729-4.009s1.15,6.078-2.616,7.107
						C348.61,133.293,346.263,129.167,346.263,129.167z"/>
					<path style="opacity:0.53;fill:#DD6595;" d="M345.787,137.397c4.324,0.144,9.303-0.295,9.303-0.295l-9.079,4.277
						L345.787,137.397z"/>
					<path style="opacity:0.53;fill:#DD6595;" d="M364.705,121.096c2.048-2.409,3.171-1.53,3.159,0.853
						c-0.012,2.384-2.778,4.247-3.744,3.619C363.155,124.94,364.705,121.096,364.705,121.096z"/>
				</g>
				<path style="fill:#6D3744;" d="M367.175,110.704c-6.794,11.682-26.024,4.254-29.867-0.698
					c-3.843-4.952,4.151-12.119,12.902-11.154C358.962,99.816,369.342,106.98,367.175,110.704z"/>
				<path style="opacity:0.36;fill:#383952;" d="M326.513,174.338l-1.672,8.223c0,0-8.665,13.843-17.254,13.603
					c-5.63-0.163-19.579-10.433-28.551-17.513c0.634,0.384,10.981,6.561,26.918,10.548
					C321.489,193.08,326.043,176.249,326.513,174.338z"/>
			</g>
			<g>
				<rect x="195.556" y="431.633" style="fill:#1F202D;" width="35.689" height="4.882"/>
				<rect x="209.684" y="360.111" style="fill:#2A2B3D;" width="7.433" height="72.504"/>
				<path style="fill:#2A2B3D;" d="M236.886,360.111h-46.971c-5.438,0-9.845-4.408-9.845-9.845v-17.659h66.662v17.659
					C246.731,355.703,242.324,360.111,236.886,360.111z"/>
				<rect x="201.808" y="360.111" style="fill:#1F202D;" width="23.185" height="4.882"/>
				<path style="fill:#D35473;" d="M297.087,409.637c1.104,8.272,4.147,17.512,7.974,19.66c3.827,2.148,28.803-6.474,30.779-11.568
					c1.976-5.094-13.386,0.522-17.115-4.539c-3.729-5.061-11.516-13.18-11.516-13.18L297.087,409.637z"/>
				<path style="fill:#FFC55A;" d="M313.522,408.514l-16.572,6.312c0,0-25.544-30.77-31.222-44.249
					c-5.668-13.478-54.268-75.346-54.268-75.346l30.549,3.603c7.426,4.957,15.899,9.741,23.719,14.756
					c9.703,6.216,18.378,12.786,22.701,20.453c5.966,10.567,17.455,48.428,22.547,65.729
					C312.551,405.123,313.522,408.514,313.522,408.514z"/>
				<path style="fill:#F49947;" d="M313.522,408.514l-16.572,6.312c0,0-25.544-30.77-31.222-44.249
					c-5.668-13.478-54.268-75.346-54.268-75.346l30.549,3.603c7.426,4.957,15.899,9.741,23.719,14.756
					c-2.21,8.79,17.167,22.614,18.599,43.432c1.374,19.857,0.528,40.243,26.649,42.75
					C312.551,405.123,313.522,408.514,313.522,408.514z"/>
				<path style="fill:#E28437;" d="M277.607,350.073c3.166,13.706-4.593,33.121-4.593,33.121l-5.938-8.989L277.607,350.073z"/>
				<path style="fill:#D35473;" d="M231.609,413.464c-2.318,8.017-5.177,20.156-2.537,23.663c2.639,3.507,20.787,5.663,24.646,1.795
					c3.859-3.868-2.434-5.643-5.655-11.042c-4.099-6.869-3.953-13.057-3.953-13.057L231.609,413.464z"/>
				<path style="fill:#FFC55A;" d="M277.631,351.075c-0.874,17.734-30.694,67.747-30.694,67.747l-17.744-3.996
					c1.777-36.986,12.815-58.082,12.815-58.082s-26.995-2.479-45.286-7.445c-18.291-4.967-37.755-26.246-29.608-48.264l44.345-5.802
					c0,0,6.936,3.939,16.312,9.885c18.339,11.605,46.026,30.838,49.503,43.173C277.554,349.26,277.679,350.192,277.631,351.075z"/>
				<path style="fill:#F49947;" d="M277.631,351.075c-0.874,17.734-30.694,67.747-30.694,67.747l-17.744-3.996
					c1.777-36.986,12.815-58.082,12.815-58.082s-26.995-2.479-45.286-7.445c-18.291-4.967-37.755-26.246-29.608-48.264l44.345-5.802
					c0,0,6.936,3.939,16.312,9.885l0.24,0.432c0,0-33.306,10.327-29.896,30.549c3.41,20.212,37.226,19.04,50.82,18.925
					c11.557-0.086,22.365-3.151,28.34-6.734C277.554,349.26,277.679,350.192,277.631,351.075z"/>
				<path style="fill:#6D3744;" d="M220.163,235.737c-4.169,13.353-13.075,51.761-55.652,66.238
					c-37.053,12.585-53.875-10.423-56.891-32.01c-0.442-3.228-0.586-6.427-0.442-9.463c1.115-23.373,17.811-16.697,38.408-27.917
					c20.587-11.221,9.462-20.779,18.089-39.407c8.627-18.618,20.308-19.223,33.672-18.291c13.363,0.932,12.45,11.547,12.45,11.547
					s4.246,7.003,0,13.728l0.01,0.01C210.192,200.768,224.285,222.557,220.163,235.737z"/>
				<path style="fill:#542633;" d="M220.163,235.737c-4.169,13.353-13.075,51.761-55.652,66.238
					c-37.053,12.585-53.875-10.423-56.891-32.01c8.492,8.31,29.771,6.254,33.902-11.374c4.928-21.048,15.371-25.074,23.681-33.777
					c8.319-8.704,0.106-20.885,6.196-28.743l6.331-7.234l32.067,11.326l0.01,0.01C210.192,200.768,224.285,222.557,220.163,235.737z
					"/>
				<path style="fill:#D35473;" d="M205.179,219.957c15.968,1.925,23.762,14.861,25.674,32.946
					c1.912,18.085,3.698,42.329,3.698,42.329l-68.797,5.895c0,0,0.635-57.974,0.948-59.242c0.313-1.268,18.919-20.855,18.919-20.855
					L205.179,219.957z"/>
				<path style="opacity:0.38;fill:#8E253E;" d="M180.548,240.088c1.238,26.99,22.908,29.52,30.914,29.802
					c8.006,0.281,19.75-13.501,19.75-13.501l8.503,29.529l-6.468,4.501l-68.041,1.099c0,0-2.075-29.734-1.184-30.602
					C164.914,260.047,180.548,240.088,180.548,240.088z"/>
				<path style="fill:#F4B8AB;" d="M199.685,278.23c8.254-4.168,19.843,0.903,18.394,10.319h-19.963L199.685,278.23z"/>
				<path style="fill:#D35473;" d="M185.621,221.03c-17.811-0.188-23.851,7.921-28.382,20.855
					c-4.53,12.935-9.564,37.348-4.027,45.654c5.537,8.306,48.396,1.762,48.396,1.762l0.622-14.27l-28.38-3.348l6.219-29.798
					L185.621,221.03z"/>
				<g>
					<path style="fill:#4D94CE;" d="M219.977,281.06l7.964-34.617c1.574-6.843,7.614-11.729,14.634-11.84l59.05-0.939
						c4.139-0.066,7.231,3.787,6.27,7.814l-10.987,42.851c-0.585,2.281-2.654,3.866-5.009,3.836l-67.014-0.858
						C221.632,287.266,219.247,284.232,219.977,281.06z"/>
					<path style="fill:#58AEDD;" d="M224.481,280.599l7.818-33.979c1.608-6.988,7.775-11.978,14.944-12.092l58.796-0.934
						c4.139-0.066,7.231,3.787,6.27,7.814l-10.924,42.605c-0.622,2.426-2.823,4.111-5.327,4.079l-66.358-0.849
						C226.241,287.199,223.705,283.971,224.481,280.599z"/>
					<path style="fill:#4D94CE;" d="M270.029,253.053l0.397-0.012c4.002-0.122,6.979,3.664,5.916,7.524l-2.12,7.699
						c-0.664,2.413-2.768,4.152-5.263,4.35l0,0c-3.992,0.318-7.151-3.322-6.276-7.23l1.723-7.687
						C265,255.048,267.314,253.137,270.029,253.053z"/>
					<path style="fill:#4D94CE;" d="M282.147,290.655l-80.209,1.275c-1.225,0.019-2.234-0.958-2.254-2.183l0,0
						c-0.02-1.225,0.958-2.234,2.183-2.254l80.209-1.275c1.225-0.019,2.234,0.958,2.254,2.183l0,0
						C284.35,289.626,283.373,290.635,282.147,290.655z"/>
					<path style="fill:#7DD0F4;" d="M301.056,290.354l-80.209,1.275c-1.225,0.02-2.234-0.958-2.254-2.183l0,0
						c-0.02-1.225,0.958-2.234,2.183-2.254l80.209-1.275c1.225-0.019,2.234,0.958,2.254,2.183l0,0
						C303.259,289.326,302.281,290.335,301.056,290.354z"/>
				</g>
				<path style="fill:#E57797;" d="M205.179,219.957c4.649,3.874,2.527,6.554,2.527,6.554s1.401,5.444-2.382,6.285
					c-3.783,0.841-6.305-1.681-6.305-1.681s-1.629,4.764-5.578,4.063c-3.95-0.701-3.209-6.867-3.209-6.867s-1.194,1.961-4.61,0
					c-3.417-1.961,0.647-7.281,0.647-7.281L205.179,219.957z"/>
				<g>
					<path style="fill:#F4B8AB;" d="M205.716,189.721c4.229,10.88,3.981,24.4-5.517,26.733l0.561,3.95
						c0.416,2.927-1.619,5.636-4.546,6.052l0,0c-2.926,0.416-5.636-1.619-6.052-4.546l-0.562-3.95c0,0-8.173-2.18-10.4-6.778
						c-2.226-4.598-0.11-0.771-0.11-0.771l-3.479-19.557l26.363-3.748L205.716,189.721z"/>
					<path style="fill:#F4B8AB;" d="M178.527,202.957c-3.051-4.074-5.638-1.816-5.844,0.831c-0.205,2.646,5.814,8.163,6.784,5.784
						C180.438,207.193,178.527,202.957,178.527,202.957z"/>
					<g>
						<path style="fill:#191918;" d="M190.539,202.412c-0.586,0.083-0.987-0.601-1.19-2.036c-0.204-1.434-0.01-2.204,0.576-2.287
							c0.586-0.083,0.986,0.602,1.19,2.036C191.318,201.559,191.125,202.329,190.539,202.412z"/>
					</g>
					<g>
						<path style="fill:#191918;" d="M200.954,200.931c-0.587,0.083-0.987-0.601-1.191-2.036c-0.204-1.434-0.01-2.204,0.576-2.287
							c0.586-0.083,0.987,0.602,1.191,2.036C201.734,200.079,201.54,200.848,200.954,200.931z"/>
					</g>
					<path style="fill:none;stroke:#E56A85;stroke-linecap:round;stroke-miterlimit:10;" d="M198.116,208.474
						c-4.972,0.824-9.351-2.218-9.351-2.218"/>
					<path style="opacity:0.53;fill:#DD6595;" d="M200.199,216.454c-4.213,0.99-9.185,1.538-9.185,1.538l9.746,2.412
						L200.199,216.454z"/>
					<path style="opacity:0.53;fill:#DD6595;" d="M178.438,204.179c-2.482-1.96-3.411-0.878-2.932,1.458
						c0.48,2.336,3.56,3.621,4.384,2.815C180.714,207.645,178.438,204.179,178.438,204.179z"/>
				</g>
				<path style="fill:#6D3744;" d="M200.761,183.008c3.612,12.19-20.696,20.098-26.423,17.93
					c-5.726-2.167-6.114-10.585,1.872-15.977C184.197,179.568,199.546,178.908,200.761,183.008z"/>
			</g>
			<g>
				<g>
					<rect x="104.603" y="298.836" style="fill:#C46C3B;" width="9.633" height="136.268"/>
					<rect x="363.055" y="298.836" style="fill:#C46C3B;" width="9.633" height="136.268"/>
				</g>
				<g>
					<rect x="104.603" y="298.836" style="fill:#AA5327;" width="9.633" height="18.213"/>
					<rect x="363.055" y="298.836" style="fill:#AA5327;" width="9.633" height="18.213"/>
				</g>
				<rect x="89.637" y="291.629" style="fill:#C46C3B;" width="298.016" height="10.105"/>
			</g>
			<rect x="182.449" y="54.763" style="fill:#D0E6EF;" width="114.84" height="79.058"/>
			<rect x="182.21" y="55.246" style="fill:#61648A;" width="28.925" height="78.092"/>
			<g>
				<rect x="184.649" y="58.597" style="fill:#FFFFFF;" width="109.208" height="5.61"/>
				<circle style="fill:#D35473;" cx="187.964" cy="61.531" r="1.194"/>
				<circle style="fill:#FFC55A;" cx="192.421" cy="61.531" r="1.194"/>
				<circle style="fill:#54D15F;" cx="196.878" cy="61.531" r="1.194"/>
				
					<line style="fill:none;stroke:#61648A;stroke-width:0.5;stroke-linecap:round;stroke-miterlimit:10;" x1="288.651" y1="60.168" x2="292.287" y2="60.168"/>
				
					<line style="fill:none;stroke:#61648A;stroke-width:0.5;stroke-linecap:round;stroke-miterlimit:10;" x1="288.651" y1="61.402" x2="292.287" y2="61.402"/>
				
					<line style="fill:none;stroke:#61648A;stroke-width:0.5;stroke-linecap:round;stroke-miterlimit:10;" x1="288.651" y1="62.637" x2="292.287" y2="62.637"/>
			</g>
			
				<line style="fill:none;stroke:#FFFFFF;stroke-width:2;stroke-linecap:round;stroke-miterlimit:10;" x1="191.998" y1="76.067" x2="199.651" y2="76.067"/>
			
				<line style="fill:none;stroke:#FFFFFF;stroke-width:2;stroke-linecap:round;stroke-miterlimit:10;" x1="191.998" y1="82.829" x2="199.651" y2="82.829"/>
			
				<line style="fill:none;stroke:#FFFFFF;stroke-width:2;stroke-linecap:round;stroke-miterlimit:10;" x1="191.998" y1="89.592" x2="199.651" y2="89.592"/>
			
				<line style="fill:none;stroke:#FFFFFF;stroke-width:2;stroke-linecap:round;stroke-miterlimit:10;" x1="196.063" y1="96.354" x2="203.716" y2="96.354"/>
			
				<line style="fill:none;stroke:#FFFFFF;stroke-width:2;stroke-linecap:round;stroke-miterlimit:10;" x1="191.998" y1="103.117" x2="199.651" y2="103.117"/>
			
				<line style="fill:none;stroke:#FFFFFF;stroke-width:2;stroke-linecap:round;stroke-miterlimit:10;" x1="196.063" y1="109.88" x2="203.716" y2="109.88"/>
			
				<line style="fill:none;stroke:#FFFFFF;stroke-width:2;stroke-linecap:round;stroke-miterlimit:10;" x1="196.063" y1="116.642" x2="203.716" y2="116.642"/>
			<g>
				<g>
					
						<line style="fill:none;stroke:#54D15F;stroke-width:1.5;stroke-linecap:round;stroke-miterlimit:10;" x1="238.198" y1="69.952" x2="245.309" y2="69.952"/>
					
						<line style="fill:none;stroke:#2D292A;stroke-width:1.5;stroke-linecap:round;stroke-miterlimit:10;" x1="247.856" y1="69.952" x2="264.204" y2="69.952"/>
					
						<line style="fill:none;stroke:#D35473;stroke-width:1.5;stroke-linecap:round;stroke-miterlimit:10;" x1="266.414" y1="69.952" x2="271.931" y2="69.952"/>
					
						<line style="fill:none;stroke:#FFC55A;stroke-width:1.5;stroke-linecap:round;stroke-miterlimit:10;" x1="273.574" y1="69.952" x2="284.155" y2="69.952"/>
					
						<line style="fill:none;stroke:#FFC55A;stroke-width:1.5;stroke-linecap:round;stroke-miterlimit:10;" x1="231.812" y1="75.945" x2="241.001" y2="75.945"/>
					
						<line style="fill:none;stroke:#2D292A;stroke-width:1.5;stroke-linecap:round;stroke-miterlimit:10;" x1="243.548" y1="75.945" x2="265.115" y2="75.945"/>
					
						<line style="fill:none;stroke:#54D15F;stroke-width:1.5;stroke-linecap:round;stroke-miterlimit:10;" x1="267.324" y1="75.945" x2="275.349" y2="75.945"/>
					
						<line style="fill:none;stroke:#D35473;stroke-width:1.5;stroke-linecap:round;stroke-miterlimit:10;" x1="277.859" y1="75.945" x2="285.884" y2="75.945"/>
					
						<line style="fill:none;stroke:#2D292A;stroke-width:1.5;stroke-linecap:round;stroke-miterlimit:10;" x1="233.495" y1="81.938" x2="244.336" y2="81.938"/>
					
						<line style="fill:none;stroke:#D35473;stroke-width:1.5;stroke-linecap:round;stroke-miterlimit:10;" x1="246.884" y1="81.938" x2="255.395" y2="81.938"/>
					
						<line style="fill:none;stroke:#FFC55A;stroke-width:1.5;stroke-linecap:round;stroke-miterlimit:10;" x1="257.604" y1="81.938" x2="273.014" y2="81.938"/>
					
						<line style="fill:none;stroke:#2D292A;stroke-width:1.5;stroke-linecap:round;stroke-miterlimit:10;" x1="275.084" y1="81.938" x2="279.869" y2="81.938"/>
					
						<line style="fill:none;stroke:#FFC55A;stroke-width:1.5;stroke-linecap:round;stroke-miterlimit:10;" x1="228.374" y1="93.923" x2="236.924" y2="93.923"/>
					
						<line style="fill:none;stroke:#2D292A;stroke-width:1.5;stroke-linecap:round;stroke-miterlimit:10;" x1="239.472" y1="93.923" x2="241.17" y2="93.923"/>
					
						<line style="fill:none;stroke:#D35473;stroke-width:1.5;stroke-linecap:round;stroke-miterlimit:10;" x1="243.379" y1="93.923" x2="257.604" y2="93.923"/>
					
						<line style="fill:none;stroke:#54D15F;stroke-width:1.5;stroke-linecap:round;stroke-miterlimit:10;" x1="259.306" y1="93.923" x2="279.179" y2="93.923"/>
					
						<line style="fill:none;stroke:#2D292A;stroke-width:1.5;stroke-linecap:round;stroke-miterlimit:10;" x1="265.693" y1="105.909" x2="281.437" y2="105.909"/>
					
						<line style="fill:none;stroke:#54D15F;stroke-width:1.5;stroke-linecap:round;stroke-miterlimit:10;" x1="233.495" y1="99.916" x2="239.896" y2="99.916"/>
					
						<line style="fill:none;stroke:#D35473;stroke-width:1.5;stroke-linecap:round;stroke-miterlimit:10;" x1="242.444" y1="99.916" x2="258.201" y2="99.916"/>
					
						<line style="fill:none;stroke:#FFC55A;stroke-width:1.5;stroke-linecap:round;stroke-miterlimit:10;" x1="260.41" y1="99.916" x2="268.87" y2="99.916"/>
					
						<line style="fill:none;stroke:#D35473;stroke-width:1.5;stroke-linecap:round;stroke-miterlimit:10;" x1="271.617" y1="99.916" x2="281.187" y2="99.916"/>
					
						<line style="fill:none;stroke:#FFC55A;stroke-width:1.5;stroke-linecap:round;stroke-miterlimit:10;" x1="234.009" y1="105.909" x2="242.275" y2="105.909"/>
					
						<line style="fill:none;stroke:#2D292A;stroke-width:1.5;stroke-linecap:round;stroke-miterlimit:10;" x1="244.822" y1="105.909" x2="252.979" y2="105.909"/>
					
						<line style="fill:none;stroke:#54D15F;stroke-width:1.5;stroke-linecap:round;stroke-miterlimit:10;" x1="255.188" y1="105.909" x2="263.079" y2="105.909"/>
					
						<line style="fill:none;stroke:#D35473;stroke-width:1.5;stroke-linecap:round;stroke-miterlimit:10;" x1="246.884" y1="117.167" x2="251.705" y2="117.167"/>
					
						<line style="fill:none;stroke:#2D292A;stroke-width:1.5;stroke-linecap:round;stroke-miterlimit:10;" x1="254.252" y1="117.167" x2="270.161" y2="117.167"/>
					
						<line style="fill:none;stroke:#FFC55A;stroke-width:1.5;stroke-linecap:round;stroke-miterlimit:10;" x1="272.37" y1="117.167" x2="283.634" y2="117.167"/>
					
						<line style="fill:none;stroke:#D35473;stroke-width:1.5;stroke-linecap:round;stroke-miterlimit:10;" x1="239.552" y1="123.16" x2="245.61" y2="123.16"/>
					
						<line style="fill:none;stroke:#2D292A;stroke-width:1.5;stroke-linecap:round;stroke-miterlimit:10;" x1="248.157" y1="123.16" x2="253.227" y2="123.16"/>
					
						<line style="fill:none;stroke:#FFC55A;stroke-width:1.5;stroke-linecap:round;stroke-miterlimit:10;" x1="255.436" y1="123.16" x2="268.763" y2="123.16"/>
					
						<line style="fill:none;stroke:#54D15F;stroke-width:1.5;stroke-linecap:round;stroke-miterlimit:10;" x1="271.266" y1="123.16" x2="284.834" y2="123.16"/>
				</g>
				
					<line style="opacity:0.21;fill:none;stroke:#383952;stroke-width:1.5;stroke-linecap:round;stroke-miterlimit:10;" x1="230.45" y1="69.952" x2="233.173" y2="69.952"/>
				
					<line style="opacity:0.21;fill:none;stroke:#383952;stroke-width:1.5;stroke-linecap:round;stroke-miterlimit:10;" x1="223.306" y1="75.945" x2="226.029" y2="75.945"/>
				
					<line style="opacity:0.21;fill:none;stroke:#383952;stroke-width:1.5;stroke-linecap:round;stroke-miterlimit:10;" x1="226.607" y1="81.938" x2="229.33" y2="81.938"/>
				
					<line style="opacity:0.21;fill:none;stroke:#383952;stroke-width:1.5;stroke-linecap:round;stroke-miterlimit:10;" x1="220.118" y1="87.93" x2="222.841" y2="87.93"/>
				
					<line style="opacity:0.21;fill:none;stroke:#383952;stroke-width:1.5;stroke-linecap:round;stroke-miterlimit:10;" x1="220.118" y1="93.923" x2="222.841" y2="93.923"/>
				
					<line style="opacity:0.21;fill:none;stroke:#383952;stroke-width:1.5;stroke-linecap:round;stroke-miterlimit:10;" x1="226.271" y1="99.916" x2="228.994" y2="99.916"/>
				
					<line style="opacity:0.21;fill:none;stroke:#383952;stroke-width:1.5;stroke-linecap:round;stroke-miterlimit:10;" x1="227.012" y1="105.909" x2="229.735" y2="105.909"/>
				
					<line style="opacity:0.21;fill:none;stroke:#383952;stroke-width:1.5;stroke-linecap:round;stroke-miterlimit:10;" x1="220.118" y1="111.902" x2="222.841" y2="111.902"/>
				
					<line style="opacity:0.21;fill:none;stroke:#383952;stroke-width:1.5;stroke-linecap:round;stroke-miterlimit:10;" x1="237.554" y1="117.167" x2="240.277" y2="117.167"/>
				
					<line style="opacity:0.21;fill:none;stroke:#383952;stroke-width:1.5;stroke-linecap:round;stroke-miterlimit:10;" x1="231.15" y1="123.16" x2="233.873" y2="123.16"/>
			</g>
			<g>
				<rect x="131.533" y="123.304" style="fill:#54D15F;" width="53.938" height="37.367"/>
				
					<text transform="matrix(1 0 0 1 140.1077 151.2227)" style="fill:#FFFFFF; font-family:'Lato-Black'; font-size:26.9941px; letter-spacing:-2;">&lt;/&gt;</text>
			</g>
			<g>
				<rect x="285.884" y="121.549" style="fill:#D35473;" width="39.876" height="23.579"/>
				<g>
					<path style="fill:#FFFFFF;" d="M298.654,133.338c0,1.129-0.915,2.044-2.044,2.044c-1.129,0-2.044-0.915-2.044-2.044
						c0-1.129,0.915-2.044,2.044-2.044C297.738,131.294,298.654,132.209,298.654,133.338z"/>
					<path style="fill:#FFFFFF;" d="M307.865,133.338c0,1.129-0.915,2.044-2.044,2.044c-1.129,0-2.044-0.915-2.044-2.044
						c0-1.129,0.915-2.044,2.044-2.044C306.951,131.294,307.865,132.209,307.865,133.338z"/>
					<path style="fill:#FFFFFF;" d="M317.077,133.338c0,1.129-0.915,2.044-2.044,2.044c-1.129,0-2.044-0.915-2.044-2.044
						c0-1.129,0.915-2.044,2.044-2.044C316.163,131.294,317.077,132.209,317.077,133.338z"/>
				</g>
			</g>
			<path style="fill:#42A547;" d="M108.462,275.667c-7.966-12.068-14.133-22.86-10.536-35.709c0,0,2.57,6.681,7.452,11.564
				c4.882,4.883,12.205,13.138,10.856,22.245C114.887,282.872,108.462,275.667,108.462,275.667z"/>
			<path style="fill:#54D15F;" d="M109.49,263.602c-6.823-15.248,0.514-37.894,4.626-41.947c0,0,5.139,12.337,5.91,20.974
				c0.771,8.636,3.855,20.457,0,28.68c-3.855,8.223-7.966,1.028-7.966,1.028L109.49,263.602z"/>
			<path style="fill:#5FD365;" d="M117.713,275.25c-1.028-12.422,8.737-23.215,12.592-28.354c0,0,3.187,10.695-0.455,18.732
				c-3.642,8.037-9.823,10.038-9.823,10.038L117.713,275.25z"/>
			<g>
				<g>
					<path style="fill:#FFC55A;" d="M129.948,271.195c-0.019,7.541-1.566,14.362-2.546,17.936c-0.451,1.662-0.788,2.623-0.788,2.623
						h-20.309c0,0-5.39-10.539-4.362-18.772c3.113-0.768,6.398-1.268,9.588-1.576C121.216,270.456,129.948,271.195,129.948,271.195z
						"/>
				</g>
			</g>
			<path style="fill:#F49947;" d="M127.402,289.131c-0.451,1.662-0.788,2.623-0.788,2.623h-20.309c0,0-5.39-10.539-4.362-18.772
				c3.113-0.768,6.398-1.268,9.588-1.576C108.737,284.434,120.217,288.497,127.402,289.131z"/>
			<g>
				<g>
					<rect x="236.918" y="184.378" style="fill:#FFC55A;" width="39.876" height="32.076"/>
				</g>
				<polygon style="fill:#F49947;" points="236.918,200.251 251.748,208.615 267.124,194.449 276.794,200.938 276.794,216.454 
					236.918,216.454 				"/>
				<circle style="fill:#FFFFFF;" cx="250.82" cy="196.433" r="3.817"/>
			</g>
		</g>
	</g>
</g>
</svg>
